<?xml version="1.0" standalone="no"?>
<!DOCTYPE svg PUBLIC "-//W3C//DTD SVG 20010904//EN"
 "http://www.w3.org/TR/2001/REC-SVG-20010904/DTD/svg10.dtd">
<svg version="1.0" xmlns="http://www.w3.org/2000/svg"
 width="1024.000000pt" height="1024.000000pt" viewBox="0 0 1024.000000 1024.000000"
 preserveAspectRatio="xMidYMid meet">

<g transform="translate(0.000000,1024.000000) scale(0.100000,-0.100000)"
fill="#000000" stroke="none">
<path d="M7315 8809 c-47 -14 -104 -69 -111 -106 -6 -30 -4 -33 17 -33 13 0
36 14 55 35 26 29 39 35 71 35 50 0 83 -23 83 -59 0 -40 -28 -61 -83 -61 -47
0 -47 0 -41 -27 10 -41 12 -43 48 -43 45 0 86 -33 86 -70 0 -37 -32 -60 -86
-60 -34 0 -46 6 -73 35 -33 36 -39 39 -65 29 -62 -24 51 -144 134 -144 80 1
170 76 170 142 0 43 -17 68 -61 87 l-38 18 44 31 c37 26 45 37 45 63 0 86
-106 156 -195 128z"/>
<path d="M6925 8796 c-38 -16 -85 -70 -85 -97 0 -28 76 -28 85 1 10 33 42 44
86 31 50 -15 65 -41 45 -80 -18 -35 -30 -40 -73 -33 -28 4 -33 2 -33 -16 0
-40 11 -52 47 -52 80 0 120 -62 71 -107 -49 -44 -121 -34 -146 21 -10 22 -18
26 -52 26 -36 0 -40 -3 -40 -24 0 -29 41 -81 81 -101 15 -8 55 -15 87 -15 50
0 66 5 100 30 49 35 62 57 62 104 0 52 -19 86 -52 93 -15 3 -28 8 -28 12 0 3
16 19 36 35 32 25 36 32 31 63 -16 99 -124 152 -222 109z"/>
<path d="M7688 8800 c-81 -24 -138 -110 -138 -207 2 -148 46 -221 148 -244 54
-12 85 1 144 58 56 55 73 111 65 210 -6 81 -42 138 -107 171 -47 23 -68 26
-112 12z m103 -98 c28 -25 32 -35 36 -99 8 -103 -1 -140 -40 -163 -48 -30 -80
-26 -116 15 -17 20 -33 48 -36 63 -4 15 -10 35 -15 44 -6 9 -7 32 -3 49 4 23
3 30 -5 25 -23 -14 -12 5 29 49 35 38 47 45 80 45 28 0 47 -8 70 -28z"/>
<path d="M8120 8682 c0 -4 17 -31 38 -61 79 -113 75 -101 45 -141 -14 -19 -44
-54 -67 -78 l-41 -44 50 8 c33 4 55 14 64 27 27 38 73 87 82 87 5 0 9 -7 9
-15 0 -8 10 -35 22 -60 l22 -45 59 0 58 0 -22 33 c-36 53 -82 97 -100 97 -31
0 -31 31 1 66 16 19 30 39 30 44 0 6 18 23 41 39 l40 30 -35 7 c-50 9 -64 1
-85 -48 -32 -76 -44 -78 -90 -10 -38 56 -60 72 -103 72 -10 0 -18 -3 -18 -8z"/>
<path d="M9348 5120 l-3 -3535 -22 -77 c-12 -42 -33 -98 -46 -125 -78 -153
-228 -278 -397 -331 -51 -16 -299 -17 -3715 -22 -2013 -3 -3645 -6 -3628 -8
24 -1 36 -9 47 -30 8 -16 22 -34 30 -41 9 -8 28 -40 42 -72 15 -33 30 -59 35
-59 4 0 20 -20 34 -44 27 -45 111 -136 126 -136 5 0 9 -4 9 -9 0 -4 20 -21 45
-37 25 -15 45 -32 45 -37 0 -4 4 -6 9 -3 5 3 14 -1 21 -9 7 -8 25 -15 41 -15
16 0 29 -4 29 -10 0 -5 18 -14 39 -20 22 -6 41 -14 43 -19 3 -9 117 -21 221
-23 27 0 54 -7 62 -14 8 -8 34 -13 67 -13 64 1 778 -10 973 -15 77 -2 152 -8
168 -14 42 -18 596 -18 628 -1 32 17 272 14 347 -5 31 -7 88 -14 126 -15 39
-1 73 -6 76 -12 5 -7 24 -7 66 0 32 6 111 10 174 10 63 -1 220 -1 348 0 128 1
237 -1 242 -4 10 -6 140 -7 200 -2 79 7 310 0 322 -10 7 -6 63 -14 123 -18
128 -9 929 -10 943 -2 5 4 68 7 140 8 72 1 129 6 126 11 -3 4 41 8 98 7 70 0
97 -3 83 -10 -23 -10 184 -5 228 6 21 6 27 4 27 -9 0 -18 36 -22 42 -5 3 9 10
9 23 2 12 -6 152 -12 344 -15 301 -4 325 -6 337 -23 8 -10 14 -14 14 -8 0 12
112 26 120 14 3 -5 42 -10 88 -13 68 -4 84 -2 91 11 7 12 12 12 23 3 10 -8 32
-8 78 -2 36 5 110 9 165 8 119 0 245 10 300 24 38 10 39 12 15 19 -19 5 -13 8
30 10 30 1 64 4 75 5 11 1 35 2 53 3 21 1 31 5 27 12 -4 6 -13 8 -21 5 -7 -3
-16 -1 -19 3 -3 5 22 12 55 16 41 5 60 11 60 21 0 8 9 14 20 14 11 0 20 5 20
10 0 6 9 10 20 10 11 0 20 6 20 14 0 7 9 16 20 19 11 3 20 12 20 21 0 9 6 16
14 16 14 0 18 11 32 93 4 23 10 34 14 27 11 -18 20 14 20 76 0 41 5 58 19 71
21 17 19 39 -2 26 -8 -4 -7 -1 1 9 20 25 32 75 42 173 5 49 14 91 19 93 14 5
15 162 1 162 -15 0 -12 123 3 139 10 11 10 13 0 7 -9 -5 -13 0 -13 16 0 14 3
18 8 11 4 -6 5 41 4 105 -2 65 -8 123 -14 130 -7 8 -7 12 0 12 11 0 10 108 -3
265 -7 91 -15 304 -18 528 -1 135 -5 180 -15 186 -11 7 -10 9 2 14 22 9 16 69
-10 98 -18 20 -18 20 11 13 27 -7 29 -6 17 9 -8 9 -12 20 -9 24 5 9 -18 281
-31 362 -6 39 -5 64 5 94 11 32 12 50 2 94 -10 45 -10 56 1 63 12 7 11 12 -5
30 -17 19 -17 21 -1 33 18 13 18 36 1 50 -7 4 -6 10 1 15 9 6 19 102 15 152
-1 8 -1 27 -1 43 0 15 -4 27 -10 27 -6 0 -9 25 -7 61 2 33 0 62 -5 65 -4 3 -8
25 -8 49 0 35 3 43 15 39 12 -5 15 5 16 57 0 35 2 77 3 92 1 15 -4 33 -11 39
-15 12 -18 78 -4 78 11 0 1 171 -11 187 -5 7 -5 14 2 18 13 8 13 45 0 45 -13
0 -13 107 0 112 12 4 19 56 29 213 4 72 8 124 9 118 3 -20 19 -15 25 8 3 12 0
22 -7 25 -17 6 -20 114 -7 249 8 75 7 101 -2 107 -9 5 -8 15 2 40 15 37 15 32
8 147 -3 53 -1 94 6 109 9 20 9 26 -1 30 -6 2 -12 8 -12 13 0 6 5 7 11 4 12
-8 2 58 -13 88 -10 19 -1 78 12 87 13 8 23 90 12 90 -6 0 -10 9 -9 20 1 11 6
20 11 20 5 0 1 7 -10 15 -10 8 -14 15 -7 15 7 0 10 6 7 13 -2 7 -1 24 4 38 5
13 6 37 1 52 -4 16 -9 54 -10 85 -1 31 -6 63 -12 70 -6 8 -6 16 1 25 12 14 19
163 8 193 -3 12 -2 43 4 68 7 32 7 53 0 66 -7 12 -7 21 0 25 5 3 10 33 10 65
0 39 5 64 15 74 20 19 19 42 -1 50 -15 6 -15 8 2 27 12 13 19 37 20 63 2 110
5 136 17 148 13 14 25 317 13 337 -8 12 -12 65 -26 301 -10 184 -16 218 -42
247 -11 12 -17 27 -13 33 4 7 -2 14 -14 17 -12 3 -21 11 -21 18 0 17 -33 45
-53 45 -11 0 -17 8 -17 25 0 14 -4 25 -8 25 -4 0 -36 27 -70 60 -34 33 -65 60
-70 60 -6 0 -17 11 -26 25 -9 14 -21 25 -27 25 -6 0 -22 14 -36 30 -14 18 -34
30 -48 30 -13 0 -27 5 -31 12 -4 7 -3 8 4 4 23 -14 12 7 -18 35 -16 16 -39 29
-50 29 -11 0 -20 5 -20 10 0 6 -9 10 -21 10 -11 0 -19 5 -17 12 3 7 -28 28
-69 49 -69 35 -102 64 -116 99 -3 8 -7 -1576 -9 -3520z"/>
<path d="M3935 8500 c-363 -3 -640 -6 -615 -8 l45 -2 -29 -15 c-15 -8 -39 -15
-53 -15 -13 0 -36 -6 -51 -13 -56 -29 -270 -37 -869 -37 -581 1 -594 1 -640
-20 -87 -38 -146 -111 -171 -210 -7 -29 -14 -238 -18 -575 -4 -291 -8 -543 -9
-560 -1 -16 -3 -60 -3 -97 -2 -61 -4 -68 -22 -68 -13 0 -20 7 -20 20 0 13 -7
20 -20 20 -20 0 -20 -6 -19 -547 1 -302 5 -533 9 -514 4 18 12 36 18 40 5 3
12 15 15 26 4 18 5 18 6 -2 2 -39 18 -25 29 25 7 36 10 -9 11 -198 l1 -245
-45 1 -46 2 3 -727 3 -726 34 -70 c61 -124 184 -221 312 -245 29 -6 198 -11
378 -12 191 0 305 -4 276 -9 -27 -4 60 -5 195 -1 135 3 308 4 385 3 77 -2 421
-2 765 0 995 5 1316 4 1459 -5 110 -8 133 -7 126 4 -6 10 -2 11 21 5 16 -4 83
-6 149 -6 280 4 365 29 466 139 33 36 74 95 92 131 l32 66 2 260 c2 143 3
1071 3 2062 1 1320 -2 1814 -11 1845 -43 162 -176 269 -339 275 -171 6 -1240
8 -1855 3z m1909 -114 c57 -24 130 -100 159 -164 l26 -58 1 -1090 c1 -599 1
-1096 1 -1105 -1 -14 -11 -16 -68 -11 -38 3 -102 4 -143 2 -172 -7 -511 3
-545 16 -9 4 -18 4 -21 1 -4 -3 -16 -2 -29 3 -13 5 -86 10 -164 11 -78 2 -141
6 -141 9 0 3 -12 7 -27 8 -16 1 -63 6 -106 12 -50 6 -86 6 -103 0 -17 -7 -23
-7 -19 0 4 7 -36 10 -117 10 -68 0 -131 1 -142 1 -10 0 -25 6 -33 14 -22 23
-94 39 -104 24 -6 -10 -13 -10 -37 0 -44 18 -103 30 -96 20 9 -15 -22 -10 -76
11 -58 23 -110 26 -110 8 0 -9 -3 -8 -10 2 -5 8 -12 12 -15 8 -4 -3 -19 -3
-34 2 -15 4 -35 4 -44 -1 -10 -6 -18 -5 -22 1 -4 6 -11 7 -17 4 -6 -4 -14 0
-19 7 -7 11 -9 11 -9 1 0 -8 -5 -10 -12 -5 -17 10 -39 10 -60 0 -13 -5 -18 -3
-18 8 0 18 -23 19 -53 3 -19 -9 -20 -9 -10 3 9 12 4 13 -34 10 -33 -2 -43 -7
-39 -17 3 -8 -1 -14 -9 -14 -7 0 -15 6 -17 14 -2 11 -12 10 -53 -3 -27 -9 -63
-14 -80 -11 -16 3 -49 3 -72 -1 -33 -4 -43 -2 -48 10 -5 12 -8 13 -14 2 -10
-15 -71 -6 -71 10 0 6 -10 9 -22 7 -13 -2 -22 -9 -20 -16 3 -17 -46 -15 -64 3
-12 11 -20 12 -35 5 -10 -6 -19 -7 -19 -3 0 4 -4 3 -8 -3 -4 -7 -15 -8 -27 -3
-19 7 -19 8 3 8 12 1 22 5 22 10 0 5 -10 9 -22 9 -13 1 -49 3 -80 5 -53 3 -56
2 -47 -15 5 -10 15 -18 21 -18 6 0 8 -3 5 -7 -4 -3 -18 4 -32 17 -15 14 -25
18 -25 11 0 -9 -10 -12 -30 -9 -16 3 -30 1 -30 -3 0 -12 -52 -21 -63 -10 -6 6
-19 11 -28 11 -9 0 -20 7 -23 16 -5 14 -15 15 -53 10 -25 -3 -52 -11 -59 -17
-9 -7 -19 -7 -33 1 -12 6 -21 7 -21 2 0 -16 -322 -62 -380 -55 -8 1 -35 -4
-60 -12 -25 -7 -58 -14 -75 -14 -16 0 -46 -2 -65 -5 -32 -5 -72 -8 -297 -21
l-73 -4 0 64 0 64 52 3 c35 2 53 8 55 18 4 12 3 12 -5 1 -7 -10 -14 -11 -31
-2 -17 10 -19 16 -11 31 9 17 6 20 -22 28 l-33 8 3 775 c2 693 4 775 18 784 9
6 33 27 55 48 21 20 43 37 47 37 5 0 17 9 27 20 10 11 23 20 30 20 6 0 17 11
23 25 12 26 62 57 101 61 13 2 29 8 35 15 8 8 5 10 -11 4 -14 -4 -23 -2 -23 4
0 6 9 11 20 11 11 0 20 5 20 10 0 6 7 10 16 10 20 0 44 24 44 44 0 9 11 16 28
18 23 3 27 8 30 41 3 40 21 51 23 15 1 -22 2 -22 8 2 7 31 50 80 69 80 20 0
50 32 34 38 -19 6 -14 22 8 22 11 0 20 6 20 14 0 9 19 16 58 21 92 12 804 20
2234 23 1168 3 1341 1 1372 -12z m-2899 -2280 c-17 -12 -11 -14 55 -13 80 2
130 -7 130 -23 0 -5 -7 -7 -15 -4 -21 9 -51 -16 -33 -27 17 -11 31 -11 24 0
-3 5 11 11 32 14 20 3 59 10 85 15 40 7 47 7 43 -5 -4 -10 0 -13 14 -9 11 3
29 9 40 12 15 4 18 2 14 -10 -7 -19 9 -21 28 -3 19 17 51 18 44 1 -3 -9 2 -14
14 -14 22 0 28 20 8 21 -41 2 78 31 132 32 138 2 389 -13 463 -27 87 -18 100
-23 92 -37 -4 -5 9 -9 27 -9 19 0 44 -7 56 -16 12 -8 27 -12 32 -9 6 4 17 1
25 -5 8 -7 15 -9 15 -4 0 4 6 0 13 -11 8 -10 19 -15 25 -11 7 4 12 2 12 -3 0
-6 -8 -11 -17 -11 -10 0 -31 -7 -48 -16 -16 -8 -39 -13 -51 -10 -12 3 -24 1
-26 -5 -2 -6 -19 -12 -39 -13 -19 -1 -41 -6 -47 -10 -7 -4 -16 -4 -22 -1 -5 3
-10 3 -10 -2 0 -4 -17 -8 -37 -9 -56 -1 -184 -13 -215 -20 -16 -4 -28 -2 -28
2 0 5 -52 9 -116 9 -63 -1 -118 3 -120 7 -3 4 -29 8 -57 8 -29 1 -78 7 -110
15 -32 7 -74 11 -93 8 -26 -4 -38 -1 -48 12 -10 14 -20 16 -42 11 -40 -10
-377 -16 -389 -6 -5 4 -56 10 -112 13 -100 5 -142 18 -182 55 -9 9 -17 10 -24
3 -7 -7 -16 -7 -30 1 -15 8 -17 12 -6 18 9 6 5 11 -15 16 -28 7 -27 7 25 29
62 27 164 40 199 27 27 -9 243 8 256 21 4 4 16 7 28 7 19 0 19 0 1 -14z m1670
-136 c3 -4 -6 -10 -20 -12 -22 -5 -41 12 -29 25 7 6 43 -3 49 -13z m250 -10
c8 -13 -5 -13 -25 0 -13 8 -13 10 2 10 9 0 20 -4 23 -10z m-195 -10 c0 -5 -4
-10 -10 -10 -5 0 -10 5 -10 10 0 6 5 10 10 10 6 0 10 -4 10 -10z m596 -436
c-5 -13 -3 -14 6 -7 7 6 22 9 33 7 11 -2 36 -5 57 -6 20 -2 34 -6 31 -10 -2
-5 1 -8 7 -8 6 0 9 -3 7 -7 -7 -11 97 -11 104 0 4 6 18 6 35 0 29 -10 29 -10
-14 -16 -23 -4 -42 -12 -42 -18 0 -7 9 -9 23 -5 55 15 98 18 111 7 9 -8 21 -8
37 -2 24 10 24 10 -3 10 -16 1 -28 5 -28 10 0 15 33 23 41 10 8 -14 121 -6
166 12 18 7 30 6 37 -1 7 -7 1 -10 -20 -10 -17 0 -34 -4 -40 -9 -5 -5 -20 -11
-34 -14 -14 -2 2 -2 35 0 33 3 67 6 75 6 8 0 24 6 35 13 11 8 26 14 35 14 12
-1 10 -4 -5 -17 -18 -14 -18 -15 -2 -9 10 3 30 6 43 6 17 0 23 4 18 13 -5 9
-3 9 7 -1 11 -10 14 -44 14 -142 0 -108 -3 -132 -17 -146 -14 -14 -20 -15 -33
-4 -8 7 -18 10 -22 6 -3 -3 0 -6 8 -6 8 0 1 -7 -15 -15 -15 -8 -32 -13 -36
-10 -5 3 -11 1 -15 -5 -4 -6 -11 -7 -17 -4 -7 4 -8 2 -4 -4 4 -6 1 -20 -5 -30
-12 -19 -12 -19 -30 -1 -22 22 -58 27 -40 6 17 -22 0 -29 -27 -11 -22 14 -25
14 -38 -3 -9 -11 -16 -14 -21 -8 -5 6 -14 10 -20 9 -7 -1 -18 -2 -25 -3 -7 0
4 -13 23 -27 19 -15 25 -23 14 -19 -45 16 -57 17 -66 4 -10 -16 -27 -19 -51
-7 -14 7 -18 4 -18 -9 0 -11 -3 -14 -8 -7 -11 16 -41 24 -47 14 -7 -11 -52 14
-72 38 -10 12 -10 19 -1 29 8 10 8 17 -1 26 -10 9 -11 8 -5 -6 5 -13 2 -16
-10 -11 -9 3 -16 10 -16 14 0 4 -9 10 -21 13 -13 3 -18 10 -14 17 5 7 0 11
-11 9 -11 -2 -30 3 -43 10 -22 12 -23 12 -17 -5 5 -15 2 -14 -14 5 -11 13 -26
21 -35 18 -8 -4 -17 -2 -21 4 -4 6 -14 3 -27 -8 -16 -14 -19 -15 -15 -3 7 18
-28 25 -38 8 -4 -6 -10 -5 -15 3 -7 11 -9 10 -9 -4 0 -10 -4 -16 -8 -13 -5 3
-20 -1 -35 -9 -15 -8 -27 -11 -27 -8 0 3 -7 0 -15 -7 -8 -7 -12 -17 -9 -22 4
-6 -4 -8 -17 -6 -27 4 -59 -37 -59 -75 0 -18 -2 -19 -10 -7 -8 13 -10 12 -10
-2 0 -26 -14 -22 -30 8 -9 17 -20 24 -32 21 -13 -4 -18 1 -18 14 0 29 -102 61
-116 37 -3 -5 -10 -6 -15 -3 -5 4 -9 -1 -9 -10 0 -9 -4 -14 -9 -10 -5 3 -12 1
-16 -5 -4 -6 -11 -7 -17 -4 -6 4 -8 -2 -3 -17 3 -13 3 -19 -2 -14 -11 13 -33
17 -33 6 0 -5 -9 -7 -20 -4 -12 3 -20 0 -20 -7 0 -9 -3 -10 -13 -1 -8 6 -18 7
-22 3 -5 -4 -5 -2 -2 4 4 7 0 15 -9 18 -12 4 -15 2 -10 -9 4 -12 0 -14 -22
-10 -15 3 -21 2 -14 -1 17 -8 5 -24 -13 -17 -9 3 -15 -1 -15 -8 0 -10 -3 -10
-11 -2 -6 6 -18 9 -27 6 -11 -5 -13 -3 -7 7 6 10 4 12 -9 7 -14 -5 -17 -3 -12
8 3 8 1 15 -4 15 -6 0 -10 -7 -10 -15 0 -9 -6 -12 -15 -9 -11 4 -13 2 -10 -9
4 -8 -1 -22 -11 -31 -16 -16 -18 -15 -47 14 -22 22 -35 29 -51 24 -31 -10 -32
-13 -8 -30 12 -8 22 -20 22 -26 0 -6 -8 -4 -17 5 -15 12 -20 13 -30 2 -6 -7
-10 -15 -7 -17 2 -3 -3 -5 -11 -5 -8 0 -15 9 -15 20 0 20 -1 20 -20 2 -20 -18
-21 -18 -33 0 -8 9 -25 18 -40 18 -14 0 -28 6 -31 13 -9 23 -36 16 -37 -8 -1
-21 -2 -21 -12 5 -6 15 -18 27 -27 27 -9 0 -21 5 -28 12 -9 9 -15 9 -24 0 -15
-15 -29 -16 -25 -1 3 16 -41 19 -47 4 -7 -18 32 -76 55 -82 16 -5 18 -8 7 -14
-19 -13 -22 -12 -52 16 -15 14 -26 35 -26 50 0 14 -3 25 -6 25 -8 0 -29 -24
-31 -38 -4 -16 14 -16 20 1 3 6 6 3 6 -9 1 -11 6 -25 13 -32 9 -9 9 -12 -3
-12 -9 0 -24 9 -34 20 -10 11 -24 20 -32 20 -7 0 -13 5 -13 10 0 6 -11 10 -24
10 -13 0 -30 8 -37 18 -13 15 -12 16 4 3 15 -12 17 -11 17 2 0 9 -5 19 -11 22
-16 10 -59 13 -53 4 2 -4 -5 -13 -16 -19 -11 -6 -20 -8 -20 -4 0 3 -7 1 -15
-6 -16 -13 -20 -5 -15 29 1 10 -7 12 -32 9 -23 -4 -37 0 -45 11 -12 14 -14 14
-25 1 -8 -9 -26 -14 -45 -12 -22 2 -35 -3 -45 -17 -9 -12 -19 -17 -27 -12 -7
5 -26 7 -42 5 -23 -3 -29 0 -29 16 0 12 -5 17 -14 14 -7 -3 -16 2 -20 11 -7
20 -102 19 -110 -2 -3 -7 0 -13 7 -13 8 0 7 -4 -3 -9 -8 -6 -18 -7 -24 -4 -5
3 -6 2 -3 -4 4 -5 -5 -16 -18 -23 -14 -7 -25 -17 -25 -21 0 -4 -9 -5 -20 -2
-15 4 -20 0 -20 -13 0 -14 -2 -16 -9 -6 -4 8 -11 13 -15 13 -22 -3 -30 0 -19
7 6 4 14 23 18 44 6 29 3 38 -11 46 -12 7 -25 7 -36 1 -10 -5 -18 -7 -18 -3 0
3 -7 1 -15 -6 -8 -7 -15 -8 -15 -3 0 14 -40 9 -50 -7 -5 -7 -18 -11 -34 -8
-14 3 -26 1 -26 -3 0 -5 -7 -6 -15 -3 -8 4 -15 1 -15 -6 0 -6 -4 -8 -10 -5 -5
3 -7 0 -5 -8 3 -7 -3 -22 -15 -32 -11 -10 -20 -13 -20 -7 0 16 -90 28 -100 12
-5 -8 -10 -9 -14 -2 -3 6 0 13 6 16 9 3 7 9 -6 20 -19 16 -19 16 6 16 15 0 28
-6 31 -12 2 -7 8 -10 12 -6 9 8 -11 30 -44 47 -19 11 -26 10 -43 -6 -21 -18
-21 -18 -9 4 11 22 10 22 -15 13 -14 -6 -29 -8 -34 -5 -18 11 -18 -13 0 -30
11 -10 17 -22 14 -27 -3 -5 -17 6 -30 24 -23 30 -40 38 -87 39 -9 0 -15 3 -13
7 2 4 -7 12 -20 19 -18 8 -22 8 -17 0 4 -7 -1 -6 -11 2 -14 12 -19 12 -26 2
-5 -9 -10 -10 -14 -2 -11 17 -29 13 -22 -4 3 -8 1 -15 -4 -15 -6 0 -10 8 -11
18 0 9 -3 12 -5 5 -4 -8 -13 -9 -29 -3 -16 6 -27 6 -31 -1 -3 -6 -15 -8 -26
-6 -16 5 -19 2 -15 -13 3 -13 -2 -19 -18 -22 -18 -4 -22 -1 -17 10 4 11 1 14
-12 9 -10 -4 -19 -1 -22 8 -7 16 -54 17 -54 0 0 -5 -7 -2 -14 8 -13 16 -32 25
-23 10 5 -8 -7 -10 -70 -15 -16 -1 -33 -8 -38 -15 -15 -20 -69 -6 -80 20 -6
12 -20 22 -31 23 -12 1 -26 4 -32 8 -6 3 -13 2 -16 -3 -3 -4 -24 -5 -46 -1
-22 4 -40 5 -40 2 0 -2 -6 0 -13 6 -10 8 -19 8 -33 -2 -11 -7 -36 -11 -61 -8
l-43 4 0 74 c0 68 9 90 25 64 8 -13 35 -13 35 1 0 5 -4 7 -10 4 -5 -3 -10 -1
-10 4 0 17 18 13 40 -9 23 -23 34 -26 27 -7 -5 14 31 43 41 33 3 -3 0 -6 -6
-6 -7 0 -12 -5 -12 -11 0 -7 9 -9 23 -5 17 4 25 0 32 -17 6 -12 18 -23 29 -25
11 -3 16 0 12 7 -4 7 -1 9 8 5 8 -3 16 2 19 13 4 14 5 14 6 -4 1 -26 21 -32
21 -6 0 15 1 15 18 0 10 -10 24 -17 30 -17 7 0 12 -4 12 -9 0 -14 44 -21 51
-9 6 9 11 9 22 -1 11 -8 17 -9 22 -1 3 6 11 8 16 5 15 -10 50 5 42 18 -4 8 -1
7 9 -1 10 -8 18 -9 22 -3 4 6 14 7 24 4 16 -6 16 -5 -1 14 -17 19 -17 21 -1
27 10 4 22 2 28 -4 8 -8 5 -9 -9 -4 -18 7 -19 6 -5 -10 8 -11 16 -14 18 -7 2
6 8 9 13 5 5 -3 4 7 -1 22 -6 15 -8 29 -5 32 3 3 5 0 5 -6 0 -7 5 -12 10 -12
6 0 10 8 10 17 0 15 2 14 16 -3 15 -18 15 -18 10 0 -6 17 -5 17 11 5 15 -12
16 -12 10 4 -4 10 -3 16 2 12 5 -3 11 0 13 7 3 8 9 8 24 0 15 -9 23 -7 41 10
l23 21 0 -29 c0 -22 3 -25 10 -14 8 12 11 12 28 -3 25 -23 35 -22 22 3 -6 11
-20 20 -31 20 -11 0 -18 4 -15 9 3 5 16 7 29 4 18 -4 19 -3 7 6 -8 6 -10 11
-4 11 15 0 36 -25 27 -33 -6 -7 12 -11 30 -8 5 1 6 -3 3 -8 -4 -5 2 -14 11
-20 10 -6 12 -11 6 -11 -7 0 -13 -4 -13 -9 0 -5 8 -7 19 -4 13 3 20 -2 24 -17
5 -18 9 -20 25 -11 17 9 19 8 15 -8 -3 -10 0 -22 6 -25 6 -4 11 -1 11 6 0 7 8
3 18 -9 18 -24 95 -44 145 -39 15 2 27 0 27 -4 0 -4 13 -7 29 -6 17 1 27 6 24
12 -2 7 0 15 6 19 6 3 11 1 11 -6 0 -7 8 -5 21 7 22 19 22 19 10 -6 -11 -23
-10 -22 15 5 15 17 25 22 21 13 -7 -21 18 -26 27 -5 4 6 4 1 2 -13 l-5 -25 20
24 c10 13 19 18 19 12 0 -7 4 -9 10 -6 6 4 7 -1 4 -12 -5 -16 -4 -16 10 1 16
19 16 19 17 -5 0 -13 3 -18 6 -11 4 10 8 10 19 1 15 -12 74 -19 74 -8 0 3 16
5 36 4 27 -2 34 1 29 13 -4 10 0 12 11 8 9 -4 27 1 40 9 16 10 24 11 24 4 0
-8 4 -8 13 -2 18 14 70 15 61 1 -4 -6 -3 -8 3 -5 6 4 26 0 45 -8 19 -7 49 -12
66 -10 17 2 34 0 37 -6 4 -5 13 -6 23 0 9 5 22 10 27 11 6 2 16 5 23 7 7 3 27
-2 45 -10 30 -15 32 -15 41 3 11 24 26 26 26 5 0 -8 5 -15 11 -15 5 0 7 5 4
10 -3 6 1 10 9 10 9 0 16 -6 17 -12 0 -10 2 -10 6 0 2 6 11 12 19 12 9 0 13
-4 9 -9 -3 -6 6 -6 25 -1 17 5 32 5 35 -1 10 -15 25 -10 19 6 -5 11 -2 13 10
9 9 -3 13 -10 10 -15 -9 -15 6 -10 23 7 9 9 22 12 32 8 9 -4 25 -7 36 -8 11
-1 26 -5 33 -9 7 -5 12 -3 12 3 0 8 7 9 18 5 43 -17 70 -19 175 -11 30 2 47 0
47 -8 0 -6 5 -4 10 4 8 13 13 13 31 2 12 -8 18 -9 14 -2 -5 7 2 9 22 5 19 -5
24 -4 15 3 -11 7 -11 10 2 15 9 4 16 2 16 -4 0 -6 8 -6 21 1 11 7 28 9 36 6
14 -6 14 -4 2 11 -12 15 -12 16 5 10 12 -5 23 -3 28 5 6 10 10 10 18 -2 8 -12
10 -10 10 10 0 19 2 22 9 10 6 -8 8 -17 6 -21 -3 -3 7 -4 20 -1 14 2 22 9 18
14 -3 6 0 8 8 6 8 -3 13 -10 12 -16 -2 -8 5 -9 23 -2 31 12 37 12 30 2 -3 -5
7 -7 22 -6 92 10 121 10 116 3 -3 -5 -1 -9 5 -9 5 0 11 5 13 11 2 7 12 7 32
-1 29 -11 62 2 51 20 -7 11 31 23 44 15 5 -3 12 -1 16 5 3 5 16 10 28 9 21 0
21 -1 2 -10 -15 -7 -11 -8 20 -7 38 2 47 7 80 36 7 6 20 12 27 12 10 0 9 3 -2
10 -12 8 -9 10 14 10 21 0 27 4 22 15 -4 11 2 15 22 16 15 1 31 1 36 0 5 -1 4
4 -2 12 -9 11 -6 13 21 10 20 -2 26 0 16 4 -14 7 -15 10 -3 21 8 7 14 9 14 3
0 -5 7 -11 15 -15 13 -5 14 -2 4 15 -8 17 -8 20 1 14 7 -4 15 -3 19 2 3 6 22
14 41 17 27 6 31 5 20 -4 -12 -8 -8 -9 15 -4 17 4 34 11 40 15 14 13 18 11 11
-7z m474 -24 c-8 -6 -26 -10 -40 -10 -22 1 -23 2 -7 11 9 5 21 8 26 4 5 -3 13
0 16 6 4 5 10 8 13 4 4 -3 0 -10 -8 -15z m47 14 c-3 -3 -12 -4 -19 -1 -8 3 -5
6 6 6 11 1 17 -2 13 -5z m-3507 -78 c0 -11 -19 -15 -25 -6 -3 5 1 10 9 10 9 0
16 -2 16 -4z m2195 -96 c3 -5 2 -10 -4 -10 -5 0 -13 5 -16 10 -3 6 -2 10 4 10
5 0 13 -4 16 -10z m252 -16 c-3 -3 -12 -4 -19 -1 -8 3 -5 6 6 6 11 1 17 -2 13
-5z m-1577 -34 c0 -5 -2 -10 -4 -10 -3 0 -8 5 -11 10 -3 6 -1 10 4 10 6 0 11
-4 11 -10z m-156 -26 c3 -8 2 -12 -4 -9 -6 3 -10 10 -10 16 0 14 7 11 14 -7z
m2246 -64 c0 -5 -2 -10 -4 -10 -3 0 -8 5 -11 10 -3 6 -1 10 4 10 6 0 11 -4 11
-10z m-2870 -50 c6 -11 8 -20 6 -20 -3 0 -10 9 -16 20 -6 11 -8 20 -6 20 3 0
10 -9 16 -20z m2670 -10 c0 -5 -4 -10 -9 -10 -6 0 -13 5 -16 10 -3 6 1 10 9
10 9 0 16 -4 16 -10z m-185 -10 c3 -6 -1 -7 -9 -4 -18 7 -21 14 -7 14 6 0 13
-4 16 -10z m-2709 -47 c-11 -11 -19 6 -11 24 8 17 8 17 12 0 3 -10 2 -21 -1
-24z m1560 -8 c16 -16 7 -19 -20 -9 -18 7 -22 24 -5 24 6 0 17 -7 25 -15z
m2162 -10 c-3 -3 -9 2 -12 12 -6 14 -5 15 5 6 7 -7 10 -15 7 -18z m-200 -1
c-7 -6 39 -54 52 -54 5 0 6 8 3 18 -6 14 -4 15 9 4 13 -10 17 -10 22 4 5 13 9
14 21 4 12 -10 15 -10 16 1 0 8 5 3 11 -11 l10 -25 11 23 c5 12 14 22 19 22 5
0 7 -4 3 -9 -3 -5 -1 -12 5 -16 5 -3 10 -1 10 5 0 6 4 8 10 5 6 -4 2 -15 -9
-27 -11 -11 -24 -17 -30 -14 -5 4 -12 2 -16 -4 -4 -6 -11 -8 -16 -5 -5 4 -9
-1 -9 -9 0 -19 -5 -20 -31 -5 -11 5 -17 14 -14 18 2 5 -13 11 -34 15 -27 4
-41 13 -49 30 -10 22 -7 36 6 36 3 0 3 -3 0 -6z m-1638 -18 c0 -11 -19 -15
-25 -6 -3 5 1 10 9 10 9 0 16 -2 16 -4z m-775 -314 c-3 -3 -11 0 -18 7 -9 10
-8 11 6 5 10 -3 15 -9 12 -12z m365 -1 c0 -4 -28 -6 -61 -4 -44 4 -60 2 -55
-6 5 -7 -2 -11 -16 -12 -21 -1 -20 -2 7 -14 l30 -14 -29 -1 c-21 0 -27 -3 -20
-10 8 -8 25 -8 55 -1 24 6 63 11 85 11 28 0 44 5 48 16 3 8 2 13 -3 10 -5 -3
-11 0 -14 7 -3 9 17 11 92 6 119 -9 122 -9 91 -19 -21 -7 -19 -8 18 -9 28 -1
41 3 40 11 -2 8 19 15 57 20 33 4 65 10 72 12 7 3 15 1 18 -4 4 -6 30 -11 58
-11 33 -1 41 -4 22 -6 -16 -3 -34 -9 -39 -14 -6 -5 -17 -9 -25 -9 -9 -1 -29
-7 -46 -16 -28 -13 -22 -14 70 -8 55 3 114 7 130 9 17 1 63 3 103 4 43 1 72 5
72 11 0 7 -14 9 -37 5 -28 -5 -34 -3 -22 4 21 13 267 22 274 10 4 -5 28 -9 56
-9 46 0 65 -12 37 -23 -8 -4 -7 -6 3 -6 9 -1 22 6 29 14 14 17 50 20 50 5 0
-5 10 -10 23 -11 21 -1 21 -1 -3 -8 -29 -8 -13 -23 23 -21 12 1 40 1 62 0 39
-2 39 -3 10 -10 -27 -7 -25 -8 17 -9 34 -1 50 -6 57 -18 5 -10 12 -17 15 -15
20 8 117 0 128 -12 13 -13 99 -29 143 -28 11 1 49 1 85 2 46 0 61 3 50 10 -13
8 -13 10 2 10 9 0 24 3 34 7 11 4 15 3 10 -5 -12 -20 32 -35 63 -22 15 6 54
10 87 9 50 -1 315 -30 422 -45 l32 -5 1 -147 c0 -81 3 -167 6 -191 6 -47 -4
-61 -44 -61 -13 0 -23 -4 -23 -10 0 -5 14 -10 31 -10 27 0 30 -3 23 -22 -17
-57 -68 -129 -106 -149 -15 -8 -19 -8 -13 0 5 8 -1 10 -21 5 -20 -5 -25 -4
-19 5 5 10 -4 11 -41 5 -58 -8 -62 -10 -44 -27 10 -10 11 -9 5 1 -5 10 2 13
31 10 27 -2 40 -8 42 -20 4 -21 -46 -48 -85 -47 -22 1 -17 4 20 14 57 16 64
20 42 29 -9 3 -13 2 -10 -4 3 -6 -5 -10 -19 -10 -14 0 -49 -5 -78 -12 l-53
-12 35 -7 c29 -5 25 -7 -26 -8 -39 -1 -67 4 -80 14 -10 8 -23 15 -28 15 -6 0
-1 -7 10 -15 17 -13 9 -14 -78 -14 -53 0 -109 4 -125 8 -15 4 -40 3 -56 -3
-22 -9 -30 -8 -38 4 -8 11 -12 12 -16 3 -6 -16 -263 -19 -263 -3 0 6 -10 10
-22 9 -22 0 -22 -1 -3 -10 17 -8 17 -9 -5 -4 -14 2 -33 5 -42 5 -10 0 -18 4
-18 10 0 5 6 7 14 4 8 -3 23 -1 33 5 17 10 17 10 1 11 -10 0 -18 5 -18 10 0 6
-8 10 -17 10 -15 0 -16 -2 -3 -10 11 -7 7 -10 -17 -10 -17 0 -35 5 -38 10 -3
6 3 10 14 10 12 0 21 5 21 10 0 6 -21 10 -47 10 -32 0 -43 -3 -34 -9 11 -7 10
-10 -5 -14 -14 -3 -11 -6 14 -12 17 -4 32 -11 32 -16 0 -5 -15 -10 -32 -10
l-33 -2 35 -7 c34 -7 34 -7 -12 -9 -26 0 -50 4 -53 9 -9 14 -45 12 -42 -2 1
-8 -7 -12 -18 -11 -18 2 -514 3 -1119 4 -131 0 -246 4 -255 8 -8 5 -40 7 -71
5 -39 -3 -49 -2 -35 5 18 9 17 10 -10 12 -29 2 -52 3 -125 8 -30 2 -32 4 -15
12 17 8 17 9 -5 4 -14 -2 -51 -10 -82 -16 -32 -6 -56 -15 -53 -19 3 -4 -28
-10 -68 -14 -108 -9 -718 -6 -712 3 5 9 -28 21 -55 21 -9 -1 -5 -7 10 -15 23
-12 16 -14 -78 -17 -57 -2 -106 -1 -109 2 -6 6 -12 7 -102 8 -89 2 -90 13 -1
13 34 0 58 4 54 9 -18 17 -149 16 -138 -1 8 -14 -53 21 -67 37 -7 8 6 13 43
18 29 4 58 12 64 17 7 6 16 4 24 -6 10 -12 10 -15 -4 -15 -9 0 -16 -3 -16 -7
0 -5 21 -8 46 -9 25 0 49 -6 53 -12 4 -6 12 -7 20 -3 10 6 9 10 -4 15 -9 3
-13 11 -9 17 5 9 -3 10 -29 6 -27 -4 -37 -2 -42 11 -3 9 -3 13 1 10 4 -4 15
-3 26 3 14 7 23 7 33 -1 7 -6 56 -14 107 -17 128 -7 142 -6 146 6 2 6 13 11
23 11 30 0 13 17 -24 25 -17 4 -39 13 -48 21 -8 7 -25 15 -37 17 -28 4 -43 20
-17 17 28 -3 66 11 59 21 -3 5 10 9 30 9 64 0 75 13 21 25 -35 7 -53 8 -58 0
-6 -7 -10 -7 -13 1 -3 6 -16 9 -30 6 -21 -4 -23 -7 -12 -20 11 -14 10 -15 -7
-7 -11 5 -99 10 -195 11 -102 1 -165 -1 -150 -6 24 -8 23 -8 -8 -9 -29 -1 -32
-3 -23 -20 9 -16 8 -18 -9 -14 -11 3 -20 9 -20 14 0 5 -5 9 -11 9 -5 0 -7 -4
-4 -10 3 -5 0 -10 -7 -10 -7 0 -19 9 -25 19 -11 18 -9 20 15 24 25 4 24 4 -5
6 -24 1 -33 6 -33 19 0 16 10 17 125 14 83 -3 125 -1 125 6 0 17 -38 25 -135
27 -49 2 -96 4 -102 4 -7 1 -13 10 -13 21 0 11 6 20 13 21 10 0 10 2 0 6 -8 3
-13 24 -13 54 l0 49 35 0 c19 0 35 5 35 10 0 6 -16 10 -35 10 -24 0 -35 5 -35
15 0 12 14 15 63 17 81 2 84 2 93 11 4 4 31 7 61 7 56 0 72 16 26 26 -16 3
-34 7 -40 10 -17 5 -17 -13 0 -19 6 -3 -10 -6 -38 -7 -27 -1 -61 -3 -75 -5
-14 -3 -40 -6 -57 -9 l-33 -5 1 60 c1 32 4 61 8 64 4 2 41 6 82 10 135 10 226
22 245 33 22 13 -76 8 -186 -9 -36 -5 -76 -8 -90 -5 -14 2 -33 5 -42 5 -28 1
-25 61 2 61 12 0 20 -7 20 -17 1 -17 1 -17 11 0 5 9 17 17 25 17 8 0 13 -4 9
-9 -10 -17 15 -23 31 -7 18 18 34 21 34 6 0 -5 7 -10 16 -10 8 0 12 5 9 10 -3
6 -2 10 4 10 5 0 12 -6 14 -12 4 -10 7 -10 14 -1 5 7 29 11 58 10 28 -1 86 2
130 5 48 4 64 4 40 -1 l-40 -8 42 -2 c24 0 47 5 56 13 15 16 130 29 121 14 -3
-4 4 -8 15 -8 12 0 21 6 21 14 0 25 118 30 238 11 36 -7 45 11 10 18 -16 3
-13 5 10 6 18 0 31 -3 28 -7 -3 -5 1 -9 9 -9 8 0 12 4 10 8 -3 4 3 10 12 13 9
4 19 2 23 -4 5 -8 18 -9 46 -1 21 5 74 10 117 10 43 0 82 3 85 5 4 2 26 1 50
-4 23 -4 42 -4 42 0 0 5 12 7 28 4 15 -2 69 -5 120 -8 52 -3 100 -10 108 -17
15 -13 84 -4 84 11 0 5 22 12 49 16 27 3 54 9 60 13 19 12 2 39 -27 45 -15 2
11 3 58 2 47 -2 99 0 115 4 43 11 145 12 145 1z m-785 -44 c32 -9 36 -12 17
-15 -13 -2 -29 2 -37 8 -8 7 -27 9 -49 4 -21 -3 -36 -2 -36 3 0 25 14 25 105
0z m255 8 c16 -9 19 -14 9 -15 -8 0 -24 7 -35 15 -24 18 -7 19 26 0z m1093 8
c-7 -2 -19 -2 -25 0 -7 3 -2 5 12 5 14 0 19 -2 13 -5z m-1488 -13 c4 -6 -5
-10 -19 -10 -14 0 -26 5 -26 10 0 6 9 10 19 10 11 0 23 -4 26 -10z m-790 -30
c-3 -5 -16 -10 -28 -10 -18 0 -19 2 -7 10 20 13 43 13 35 0z m222 4 c-3 -3
-12 -4 -19 -1 -8 3 -5 6 6 6 11 1 17 -2 13 -5z m180 0 c-3 -3 -12 -4 -19 -1
-8 3 -5 6 6 6 11 1 17 -2 13 -5z m-467 -30 c0 -2 -17 -4 -37 -3 -33 1 -35 2
-13 8 23 7 50 4 50 -5z m358 9 c-10 -2 -26 -2 -35 0 -10 3 -2 5 17 5 19 0 27
-2 18 -5z m-75 -10 c-13 -2 -35 -2 -50 0 -16 2 -5 4 22 4 28 0 40 -2 28 -4z
m2890 -10 c-7 -2 -19 -2 -25 0 -7 3 -2 5 12 5 14 0 19 -2 13 -5z m-3120 -10
c-7 -2 -19 -2 -25 0 -7 3 -2 5 12 5 14 0 19 -2 13 -5z m3342 -33 c27 -7 27 -8
5 -8 -14 0 -36 4 -50 8 -20 6 -21 8 -5 8 11 0 34 -4 50 -8z m313 3 c-10 -2
-28 -2 -40 0 -13 2 -5 4 17 4 22 1 32 -1 23 -4z m291 -9 c2 -2 -23 -4 -57 -4
-35 0 -62 4 -62 10 0 9 108 3 119 -6z m-4144 -434 c4 -6 -11 -10 -37 -9 -36 1
-39 2 -18 9 36 11 48 11 55 0z m438 -57 c-7 -2 -19 -2 -25 0 -7 3 -2 5 12 5
14 0 19 -2 13 -5z m-196 -9 c-3 -3 -12 -4 -19 -1 -8 3 -5 6 6 6 11 1 17 -2 13
-5z m-188 -36 c-1 -16 -3 -18 -6 -6 -2 10 -17 18 -36 21 -31 4 -31 4 6 5 33 2
37 -1 36 -20z m98 16 c-3 -3 -12 -4 -19 -1 -8 3 -5 6 6 6 11 1 17 -2 13 -5z
m65 -44 l33 -20 -52 0 c-29 0 -53 -4 -53 -10 0 -5 -12 -9 -27 -9 -24 2 -25 2
-5 6 12 2 20 9 17 14 -4 5 8 9 25 9 25 0 31 4 26 15 -7 20 -3 19 36 -5z m99 4
c17 -8 28 -18 25 -22 -4 -3 -12 0 -18 6 -7 7 -23 12 -36 12 -13 0 -20 4 -17
10 8 13 11 13 46 -6z m-381 -23 c0 -12 -20 -25 -27 -18 -7 7 6 27 18 27 5 0 9
-4 9 -9z m90 -6 c0 -9 -9 -15 -21 -15 -18 0 -19 2 -9 15 7 8 16 15 21 15 5 0
9 -7 9 -15z m77 9 c-3 -3 -12 -4 -19 -1 -8 3 -5 6 6 6 11 1 17 -2 13 -5z m140
-20 c-3 -3 -12 -4 -19 -1 -8 3 -5 6 6 6 11 1 17 -2 13 -5z m46 -11 c-7 -2 -19
-2 -25 0 -7 3 -2 5 12 5 14 0 19 -2 13 -5z m-263 -7 c0 -2 -16 -6 -35 -8 -19
-2 -35 0 -35 4 0 4 16 8 35 8 19 0 35 -2 35 -4z m1343 -83 c-7 -2 -19 -2 -25
0 -7 3 -2 5 12 5 14 0 19 -2 13 -5z"/>
<path d="M3878 6053 c6 -2 18 -2 25 0 6 3 1 5 -13 5 -14 0 -19 -2 -12 -5z"/>
<path d="M3280 6040 c-18 -12 -2 -12 25 0 13 6 15 9 5 9 -8 0 -22 -4 -30 -9z"/>
<path d="M3160 6022 c0 -14 43 -23 54 -12 7 7 4 10 -6 10 -9 0 -23 3 -32 6 -9
3 -16 2 -16 -4z"/>
<path d="M2216 5368 l-16 -33 20 24 c11 13 20 27 20 32 0 17 -9 9 -24 -23z"/>
<path d="M4778 5308 c9 -9 15 -9 24 0 9 9 7 12 -12 12 -19 0 -21 -3 -12 -12z"/>
<path d="M3478 5133 c6 -2 18 -2 25 0 6 3 1 5 -13 5 -14 0 -19 -2 -12 -5z"/>
<path d="M5455 5110 c3 -5 10 -10 16 -10 5 0 9 5 9 10 0 6 -7 10 -16 10 -8 0
-12 -4 -9 -10z"/>
<path d="M3764 5089 c-3 -5 -2 -9 3 -10 4 0 18 -2 31 -3 12 -2 22 1 22 5 0 10
-50 18 -56 8z"/>
<path d="M5505 5070 c3 -5 8 -10 11 -10 2 0 4 5 4 10 0 6 -5 10 -11 10 -5 0
-7 -4 -4 -10z"/>
<path d="M4521 4685 c3 -3 17 -6 32 -7 20 -2 23 -5 15 -15 -8 -10 -3 -13 26
-13 23 0 35 4 31 10 -4 6 -10 8 -15 5 -4 -3 -12 1 -18 8 -6 7 -25 14 -43 15
-18 2 -31 0 -28 -3z"/>
<path d="M3355 4670 c-3 -5 -1 -10 4 -10 6 0 11 5 11 10 0 6 -2 10 -4 10 -3 0
-8 -4 -11 -10z"/>
<path d="M3408 4673 c12 -2 30 -2 40 0 9 3 -1 5 -23 4 -22 0 -30 -2 -17 -4z"/>
<path d="M3658 4662 c-9 -4 33 -8 95 -8 62 -1 103 1 92 6 -26 9 -165 11 -187
2z"/>
<path d="M4416 4661 c-18 -7 -18 -8 -2 -14 27 -11 126 -8 126 3 0 6 -10 11
-22 11 -13 1 -36 3 -53 4 -16 2 -39 -1 -49 -4z"/>
<path d="M2760 4632 c0 -4 15 -9 33 -11 17 -1 44 -4 60 -5 37 -3 34 10 -4 18
-44 8 -89 8 -89 -2z"/>
<path d="M3358 4628 c8 -8 17 -8 34 0 22 10 21 11 -11 11 -27 1 -32 -2 -23
-11z"/>
<path d="M2904 4621 c3 -5 15 -7 26 -4 28 7 25 13 -6 13 -14 0 -23 -4 -20 -9z"/>
<path d="M3068 4623 c7 -3 16 -2 19 1 4 3 -2 6 -13 5 -11 0 -14 -3 -6 -6z"/>
<path d="M3863 4623 c9 -2 25 -2 35 0 9 3 1 5 -18 5 -19 0 -27 -2 -17 -5z"/>
<path d="M2253 4603 c20 -2 54 -2 75 0 20 2 3 4 -38 4 -41 0 -58 -2 -37 -4z"/>
<path d="M2735 4601 c-29 -7 -29 -7 14 -14 24 -4 46 -5 49 -2 3 3 -6 5 -19 5
-19 0 -21 2 -9 10 17 11 10 11 -35 1z"/>
<path d="M2843 4593 c9 -2 23 -2 30 0 6 3 -1 5 -18 5 -16 0 -22 -2 -12 -5z"/>
<path d="M4893 4593 c9 -2 25 -2 35 0 9 3 1 5 -18 5 -19 0 -27 -2 -17 -5z"/>
<path d="M2495 4580 c11 -5 29 -8 40 -8 16 0 15 2 -5 8 -34 11 -60 11 -35 0z"/>
<path d="M2085 4571 c-16 -6 -10 -9 25 -13 25 -2 47 -1 50 3 8 12 130 5 139
-9 4 -6 20 -13 36 -16 17 -2 22 -1 13 1 -10 2 -18 9 -18 15 0 6 10 8 23 4 12
-3 39 -9 60 -12 31 -5 36 -4 32 8 -4 10 -27 17 -73 22 -91 8 -262 6 -287 -3z"/>
<path d="M4893 4573 c9 -2 25 -2 35 0 9 3 1 5 -18 5 -19 0 -27 -2 -17 -5z"/>
<path d="M1905 4560 c17 -4 41 -8 55 -8 22 0 22 1 -5 8 -16 4 -41 8 -55 8 -22
0 -22 -1 5 -8z"/>
<path d="M2468 4553 c6 -2 18 -2 25 0 6 3 1 5 -13 5 -14 0 -19 -2 -12 -5z"/>
<path d="M2618 4553 c6 -2 18 -2 25 0 6 3 1 5 -13 5 -14 0 -19 -2 -12 -5z"/>
<path d="M1998 4543 c7 -3 16 -2 19 1 4 3 -2 6 -13 5 -11 0 -14 -3 -6 -6z"/>
<path d="M2195 4531 c-16 -3 -25 -9 -20 -13 11 -6 105 10 105 18 0 6 -49 3
-85 -5z"/>
<path d="M5520 4531 c0 -13 105 -24 143 -15 l32 8 -45 7 c-64 11 -130 11 -130
0z"/>
<path d="M5308 4523 c6 -2 18 -2 25 0 6 3 1 5 -13 5 -14 0 -19 -2 -12 -5z"/>
<path d="M2048 4513 c6 -2 18 -2 25 0 6 3 1 5 -13 5 -14 0 -19 -2 -12 -5z"/>
<path d="M4640 4510 c-12 -8 -10 -10 8 -10 13 0 20 4 17 10 -7 12 -6 12 -25 0z"/>
<path d="M2175 4500 c-28 -7 -27 -8 15 -10 25 -1 54 -3 65 -5 11 -1 43 1 70 5
49 7 49 7 -22 9 -39 0 -77 3 -85 5 -7 2 -26 0 -43 -4z"/>
<path d="M5418 4503 c12 -2 30 -2 40 0 9 3 -1 5 -23 4 -22 0 -30 -2 -17 -4z"/>
<path d="M5500 4500 c14 -4 36 -8 50 -8 22 0 22 1 -5 8 -16 4 -39 8 -50 8 -16
0 -15 -2 5 -8z"/>
<path d="M5253 4493 c15 -2 37 -2 50 0 12 2 0 4 -28 4 -27 0 -38 -2 -22 -4z"/>
<path d="M2104 4483 c22 -4 26 -7 15 -14 -10 -6 -7 -9 14 -9 15 0 27 4 27 9 0
12 -27 21 -58 20 -27 -2 -26 -2 2 -6z"/>
<path d="M2198 4473 c7 -3 16 -2 19 1 4 3 -2 6 -13 5 -11 0 -14 -3 -6 -6z"/>
<path d="M5458 4473 c12 -2 32 -2 45 0 12 2 2 4 -23 4 -25 0 -35 -2 -22 -4z"/>
<path d="M1718 4433 c7 -3 16 -2 19 1 4 3 -2 6 -13 5 -11 0 -14 -3 -6 -6z"/>
<path d="M2140 4431 c0 -15 23 -26 28 -13 3 9 19 10 54 6 37 -5 49 -4 44 5 -9
13 -126 15 -126 2z"/>
<path d="M1810 4420 c0 -5 10 -10 23 -10 18 0 19 2 7 10 -19 13 -30 13 -30 0z"/>
<path d="M2088 4413 c6 -2 18 -2 25 0 6 3 1 5 -13 5 -14 0 -19 -2 -12 -5z"/>
<path d="M3568 4413 c12 -2 30 -2 40 0 9 3 -1 5 -23 4 -22 0 -30 -2 -17 -4z"/>
<path d="M3800 4410 c8 -5 22 -10 30 -10 13 0 13 1 0 10 -8 5 -22 10 -30 10
-13 0 -13 -1 0 -10z"/>
<path d="M5828 4403 c7 -3 16 -2 19 1 4 3 -2 6 -13 5 -11 0 -14 -3 -6 -6z"/>
<path d="M2938 4383 c7 -3 16 -2 19 1 4 3 -2 6 -13 5 -11 0 -14 -3 -6 -6z"/>
<path d="M2990 4380 c0 -5 9 -10 19 -10 11 0 23 5 26 10 4 6 -5 10 -19 10 -14
0 -26 -4 -26 -10z"/>
<path d="M2429 4376 c-2 -2 -25 -6 -52 -8 -26 -3 -51 -9 -55 -13 -4 -4 11 -5
33 -2 22 4 60 7 85 7 33 0 41 3 30 10 -16 10 -34 13 -41 6z"/>
<path d="M4858 4373 c7 -3 16 -2 19 1 4 3 -2 6 -13 5 -11 0 -14 -3 -6 -6z"/>
<path d="M5828 4373 c6 -2 18 -2 25 0 6 3 1 5 -13 5 -14 0 -19 -2 -12 -5z"/>
<path d="M1725 4351 c-7 -13 4 -15 60 -12 51 3 60 11 12 11 -19 0 -42 3 -50 6
-8 3 -18 1 -22 -5z"/>
<path d="M2900 4350 c14 -4 36 -8 50 -8 22 0 22 1 -5 8 -16 4 -39 8 -50 8 -16
0 -15 -2 5 -8z"/>
<path d="M1628 4333 c6 -2 18 -2 25 0 6 3 1 5 -13 5 -14 0 -19 -2 -12 -5z"/>
<path d="M2358 4333 c23 -2 61 -2 85 0 23 2 4 4 -43 4 -47 0 -66 -2 -42 -4z"/>
<path d="M2990 4320 c-24 -8 -23 -8 8 -9 17 -1 32 4 32 9 0 11 -5 11 -40 0z"/>
<path d="M3045 4320 c-8 -13 5 -13 25 0 13 8 13 10 -2 10 -9 0 -20 -4 -23 -10z"/>
<path d="M3248 4323 c6 -2 18 -2 25 0 6 3 1 5 -13 5 -14 0 -19 -2 -12 -5z"/>
<path d="M1748 4308 c5 -5 16 -8 23 -6 8 3 3 7 -10 11 -17 4 -21 3 -13 -5z"/>
<path d="M3290 4310 c-18 -6 -10 -8 33 -8 31 0 57 4 57 9 0 11 -55 10 -90 -1z"/>
<path d="M3080 4300 c8 -5 22 -10 30 -10 13 0 13 1 0 10 -8 5 -22 10 -30 10
-13 0 -13 -1 0 -10z"/>
<path d="M3218 4303 c6 -2 18 -2 25 0 6 3 1 5 -13 5 -14 0 -19 -2 -12 -5z"/>
<path d="M2358 4293 c6 -2 18 -2 25 0 6 3 1 5 -13 5 -14 0 -19 -2 -12 -5z"/>
<path d="M2478 4293 c7 -3 16 -2 19 1 4 3 -2 6 -13 5 -11 0 -14 -3 -6 -6z"/>
<path d="M3160 4290 c0 -5 4 -10 9 -10 6 0 13 5 16 10 3 6 -1 10 -9 10 -9 0
-16 -4 -16 -10z"/>
<path d="M2413 4283 c9 -2 23 -2 30 0 6 3 -1 5 -18 5 -16 0 -22 -2 -12 -5z"/>
<path d="M3008 4283 c6 -2 18 -2 25 0 6 3 1 5 -13 5 -14 0 -19 -2 -12 -5z"/>
<path d="M3310 4276 c0 -2 9 -6 20 -9 11 -3 20 -1 20 4 0 5 -9 9 -20 9 -11 0
-20 -2 -20 -4z"/>
<path d="M3045 4260 l-40 -7 35 -1 c19 -1 42 3 50 8 16 11 14 11 -45 0z"/>
<path d="M3228 4263 c7 -3 16 -2 19 1 4 3 -2 6 -13 5 -11 0 -14 -3 -6 -6z"/>
<path d="M4550 4260 c0 -5 5 -10 11 -10 5 0 7 5 4 10 -3 6 -8 10 -11 10 -2 0
-4 -4 -4 -10z"/>
<path d="M1965 4250 c-7 -12 19 -12 55 0 22 7 21 8 -12 9 -20 1 -40 -3 -43 -9z"/>
<path d="M2080 4248 l-45 -11 40 -13 c22 -7 54 -13 70 -13 43 0 152 24 140 31
-20 12 -162 16 -205 6z"/>
<path d="M2703 4253 c9 -2 25 -2 35 0 9 3 1 5 -18 5 -19 0 -27 -2 -17 -5z"/>
<path d="M3165 4240 c-19 -8 -19 -9 2 -9 12 -1 25 4 28 9 7 12 -2 12 -30 0z"/>
<path d="M3863 4243 c15 -2 37 -2 50 0 12 2 0 4 -28 4 -27 0 -38 -2 -22 -4z"/>
<path d="M2756 4231 c5 -6 29 -13 54 -17 41 -7 44 -6 31 9 -8 11 -28 17 -54
17 -26 0 -37 -4 -31 -9z"/>
<path d="M4768 4233 c7 -3 16 -2 19 1 4 3 -2 6 -13 5 -11 0 -14 -3 -6 -6z"/>
<path d="M4945 4229 c-26 -6 -24 -7 15 -8 25 -1 56 -4 69 -8 16 -4 22 -2 18 4
-9 14 -64 20 -102 12z"/>
<path d="M3130 4209 c-29 -8 -20 -10 69 -14 50 -2 52 -1 28 12 -26 13 -54 14
-97 2z"/>
<path d="M5120 4210 c-8 -5 -10 -10 -5 -10 6 0 17 5 25 10 8 5 11 10 5 10 -5
0 -17 -5 -25 -10z"/>
<path d="M2098 4193 c7 -3 16 -2 19 1 4 3 -2 6 -13 5 -11 0 -14 -3 -6 -6z"/>
<path d="M2298 4178 c-17 -17 -17 -18 0 -18 9 0 28 -3 42 -5 22 -5 21 -4 -4 6
-19 8 -24 14 -16 19 7 4 8 10 4 12 -5 3 -17 -3 -26 -14z"/>
<path d="M5468 4193 c7 -3 16 -2 19 1 4 3 -2 6 -13 5 -11 0 -14 -3 -6 -6z"/>
<path d="M1811 4181 c-7 -5 -23 -7 -35 -4 -21 4 -21 4 -1 -11 11 -9 26 -14 33
-11 8 3 32 6 55 6 28 1 33 3 17 6 -14 3 -29 9 -34 14 -12 11 -17 11 -35 0z"/>
<path d="M2168 4183 c7 -3 16 -2 19 1 4 3 -2 6 -13 5 -11 0 -14 -3 -6 -6z"/>
<path d="M2243 4183 c9 -2 25 -2 35 0 9 3 1 5 -18 5 -19 0 -27 -2 -17 -5z"/>
<path d="M5588 4183 c6 -2 18 -2 25 0 6 3 1 5 -13 5 -14 0 -19 -2 -12 -5z"/>
<path d="M2615 4169 c-4 -6 -5 -13 -2 -16 7 -7 27 6 27 18 0 12 -17 12 -25 -2z"/>
<path d="M3172 4169 c-9 -3 18 -9 61 -13 42 -4 75 -12 71 -17 -6 -11 31 -10
66 1 24 8 23 8 -7 9 -18 1 -33 5 -33 10 0 5 -19 7 -42 5 -37 -3 -39 -2 -13 5
24 7 19 8 -28 7 -32 0 -65 -4 -75 -7z"/>
<path d="M3705 4170 c-4 -6 16 -10 52 -11 70 -1 115 -4 213 -12 l75 -6 -75 14
c-99 19 -257 28 -265 15z"/>
<path d="M3418 4163 c7 -3 16 -2 19 1 4 3 -2 6 -13 5 -11 0 -14 -3 -6 -6z"/>
<path d="M4529 4163 c19 -4 21 -7 10 -14 -10 -6 -4 -9 19 -9 30 0 32 2 18 15
-8 8 -27 14 -43 14 -26 -2 -26 -2 -4 -6z"/>
<path d="M2200 4156 c0 -9 50 -12 62 -5 8 6 -1 9 -24 9 -21 0 -38 -2 -38 -4z"/>
<path d="M2415 4150 c3 -5 14 -10 23 -10 15 0 15 2 2 10 -20 13 -33 13 -25 0z"/>
<path d="M2898 4153 c7 -3 16 -2 19 1 4 3 -2 6 -13 5 -11 0 -14 -3 -6 -6z"/>
<path d="M2098 4140 c-37 -5 -75 -13 -85 -20 -14 -9 0 -10 64 -7 59 3 86 8 98
20 11 12 12 17 3 16 -7 -1 -43 -5 -80 -9z"/>
<path d="M3160 4140 c14 -4 34 -8 45 -8 16 0 15 2 -5 8 -14 4 -34 8 -45 8 -16
0 -15 -2 5 -8z"/>
<path d="M3710 4146 c0 -2 9 -6 20 -9 11 -3 18 -1 14 4 -5 9 -34 13 -34 5z"/>
<path d="M4450 4141 c0 -4 14 -8 30 -9 17 0 30 3 30 7 0 4 -13 8 -30 9 -16 0
-30 -3 -30 -7z"/>
<path d="M2224 4129 c-7 -12 30 -16 89 -11 31 2 57 8 57 13 0 9 -140 7 -146
-2z"/>
<path d="M2445 4130 c-11 -5 -30 -6 -42 -3 -16 4 -23 1 -23 -10 0 -9 -10 -18
-22 -20 -13 -2 -7 -3 12 -1 78 7 135 26 109 36 -8 3 -23 2 -34 -2z"/>
<path d="M2518 4121 c-7 -12 -23 -21 -38 -21 -14 0 -32 -5 -40 -11 -11 -8 -3
-9 32 -6 26 2 46 1 43 -3 -5 -8 68 -20 126 -20 22 0 39 4 39 9 0 5 -6 9 -12 8
-63 -2 -138 5 -138 13 0 6 11 10 24 10 14 0 28 5 32 11 5 9 -4 10 -32 5 -27
-5 -34 -4 -24 3 8 5 11 13 8 16 -4 4 -13 -2 -20 -14z"/>
<path d="M4415 4130 c3 -5 10 -10 16 -10 5 0 9 5 9 10 0 6 -7 10 -16 10 -8 0
-12 -4 -9 -10z"/>
<path d="M4073 4123 c9 -2 23 -2 30 0 6 3 -1 5 -18 5 -16 0 -22 -2 -12 -5z"/>
<path d="M2610 4110 c23 -14 87 -22 112 -14 22 7 22 7 3 15 -30 11 -134 11
-115 -1z"/>
<path d="M2810 4110 c-12 -7 -8 -10 16 -10 17 0 37 -7 44 -15 7 -8 18 -15 24
-15 6 0 4 5 -4 10 -8 5 -15 15 -15 22 0 16 -45 22 -65 8z"/>
<path d="M3430 4110 c75 -9 155 -12 149 -6 -3 3 -52 7 -109 10 -84 4 -92 3
-40 -4z"/>
<path d="M4018 4113 c6 -2 18 -2 25 0 6 3 1 5 -13 5 -14 0 -19 -2 -12 -5z"/>
<path d="M1828 4103 c12 -2 30 -2 40 0 9 3 -1 5 -23 4 -22 0 -30 -2 -17 -4z"/>
<path d="M2295 4100 c-3 -5 1 -10 10 -10 9 0 13 5 10 10 -3 6 -8 10 -10 10 -2
0 -7 -4 -10 -10z"/>
<path d="M5280 4100 c0 -5 5 -10 11 -10 5 0 7 5 4 10 -3 6 -8 10 -11 10 -2 0
-4 -4 -4 -10z"/>
<path d="M5680 4099 c0 -5 21 -9 47 -9 25 0 43 3 40 6 -10 10 -87 12 -87 3z"/>
<path d="M1623 4093 c9 -2 23 -2 30 0 6 3 -1 5 -18 5 -16 0 -22 -2 -12 -5z"/>
<path d="M1913 4093 c9 -2 23 -2 30 0 6 3 -1 5 -18 5 -16 0 -22 -2 -12 -5z"/>
<path d="M3240 4090 c36 -11 50 -11 50 0 0 6 -17 10 -37 9 -34 -1 -35 -2 -13
-9z"/>
<path d="M3317 4082 c-20 -12 -19 -12 13 -6 48 9 74 24 37 22 -15 -2 -37 -8
-50 -16z"/>
<path d="M3618 4093 c12 -2 32 -2 45 0 12 2 2 4 -23 4 -25 0 -35 -2 -22 -4z"/>
<path d="M4065 4090 c29 -13 104 -13 85 0 -8 5 -35 9 -60 9 -34 0 -40 -2 -25
-9z"/>
<path d="M2313 4082 c-88 -3 -110 -17 -43 -28 22 -4 40 -10 40 -15 0 -4 12 -9
28 -11 15 -2 27 -9 27 -16 0 -18 27 -33 47 -26 10 3 32 1 50 -4 36 -10 72 -2
74 17 3 22 4 23 17 13 14 -12 57 -5 57 8 0 4 -11 11 -25 14 -14 4 -25 11 -25
16 0 6 -21 10 -47 10 -27 1 -64 6 -83 13 -20 7 -71 11 -117 9z m132 -27 l40
-14 -55 3 c-129 9 -118 7 -90 16 38 12 61 11 105 -5z m85 -25 c0 -5 -8 -10
-17 -10 -15 0 -16 2 -3 10 19 12 20 12 20 0z m-70 -26 c0 -2 -9 -4 -20 -4 -11
0 -20 4 -20 9 0 5 9 7 20 4 11 -3 20 -7 20 -9z m67 -10 c-3 -3 -12 -4 -19 -1
-8 3 -5 6 6 6 11 1 17 -2 13 -5z"/>
<path d="M3065 4081 c-33 -3 -53 -9 -45 -12 22 -8 110 1 110 12 0 5 -1 8 -2 7
-2 -1 -30 -4 -63 -7z"/>
<path d="M5516 4083 c-16 -3 -35 -11 -43 -19 -12 -12 -8 -14 35 -14 36 0 49
-4 49 -14 0 -11 -5 -12 -18 -5 -23 12 -85 12 -110 -1 -13 -7 -19 -7 -19 0 0 5
-13 10 -29 10 -17 0 -33 5 -36 10 -3 6 -16 10 -28 9 l-22 0 23 -11 c12 -6 22
-15 22 -20 0 -4 11 -8 24 -8 14 0 28 -5 31 -10 4 -6 3 -10 -2 -9 -21 4 -31 -2
-29 -18 3 -18 31 -32 59 -27 9 1 15 -2 11 -7 -8 -14 23 -11 38 4 7 8 20 16 28
20 12 4 11 6 -2 6 -10 1 -18 6 -18 11 0 6 -7 10 -15 10 -8 0 -15 4 -15 9 0 6
16 3 35 -5 33 -14 96 -13 148 3 27 7 15 26 -24 39 -28 10 -30 12 -14 17 18 4
18 5 -2 6 -13 0 -23 6 -23 11 0 10 -3 10 -54 3z"/>
<path d="M3498 4067 c23 -5 42 -14 42 -19 0 -9 80 -2 110 9 21 9 -63 22 -135
21 l-60 0 43 -11z m79 -3 c-3 -3 -12 -4 -19 -1 -8 3 -5 6 6 6 11 1 17 -2 13
-5z"/>
<path d="M4188 4073 c7 -3 16 -2 19 1 4 3 -2 6 -13 5 -11 0 -14 -3 -6 -6z"/>
<path d="M4268 4073 c6 -2 18 -2 25 0 6 3 1 5 -13 5 -14 0 -19 -2 -12 -5z"/>
<path d="M5003 4073 c9 -2 23 -2 30 0 6 3 -1 5 -18 5 -16 0 -22 -2 -12 -5z"/>
<path d="M5258 4073 c6 -2 18 -2 25 0 6 3 1 5 -13 5 -14 0 -19 -2 -12 -5z"/>
<path d="M3803 4063 c9 -2 23 -2 30 0 6 3 -1 5 -18 5 -16 0 -22 -2 -12 -5z"/>
<path d="M5080 4061 c0 -5 11 -11 24 -13 17 -4 23 -1 19 9 -6 14 -43 18 -43 4z"/>
<path d="M5628 4063 c6 -2 18 -2 25 0 6 3 1 5 -13 5 -14 0 -19 -2 -12 -5z"/>
<path d="M5768 4063 c7 -3 16 -2 19 1 4 3 -2 6 -13 5 -11 0 -14 -3 -6 -6z"/>
<path d="M2856 4048 c6 -10 51 -11 57 0 3 4 -10 7 -28 8 -19 0 -32 -3 -29 -8z"/>
<path d="M3406 4050 c12 -5 43 -11 70 -15 l49 -6 -34 16 c-18 8 -50 15 -70 14
-30 0 -32 -2 -15 -9z"/>
<path d="M3858 4053 c7 -3 16 -2 19 1 4 3 -2 6 -13 5 -11 0 -14 -3 -6 -6z"/>
<path d="M3298 4043 c12 -2 30 -2 40 0 9 3 -1 5 -23 4 -22 0 -30 -2 -17 -4z"/>
<path d="M5018 4043 c6 -2 18 -2 25 0 6 3 1 5 -13 5 -14 0 -19 -2 -12 -5z"/>
<path d="M2728 4033 c7 -3 16 -2 19 1 4 3 -2 6 -13 5 -11 0 -14 -3 -6 -6z"/>
<path d="M3653 4033 c9 -2 25 -2 35 0 9 3 1 5 -18 5 -19 0 -27 -2 -17 -5z"/>
<path d="M3593 4023 c9 -2 23 -2 30 0 6 3 -1 5 -18 5 -16 0 -22 -2 -12 -5z"/>
<path d="M3852 4024 c3 -3 37 -7 74 -9 58 -3 63 -3 29 5 -45 10 -111 13 -103
4z"/>
<path d="M2768 4013 c6 -2 18 -2 25 0 6 3 1 5 -13 5 -14 0 -19 -2 -12 -5z"/>
<path d="M3508 4013 c6 -2 18 -2 25 0 6 3 1 5 -13 5 -14 0 -19 -2 -12 -5z"/>
<path d="M4550 4012 c0 -7 5 -12 10 -12 6 0 10 -6 10 -14 0 -8 14 -19 31 -25
37 -13 63 -14 34 -1 -18 8 -17 9 8 9 17 1 26 5 22 12 -4 6 -19 7 -37 4 -23 -5
-35 -2 -54 16 -13 12 -24 17 -24 11z"/>
<path d="M5083 4013 c9 -2 25 -2 35 0 9 3 1 5 -18 5 -19 0 -27 -2 -17 -5z"/>
<path d="M5310 4010 c0 -5 5 -10 11 -10 5 0 7 5 4 10 -3 6 -8 10 -11 10 -2 0
-4 -4 -4 -10z"/>
<path d="M3543 3980 c-1 -11 2 -20 8 -20 5 0 9 4 9 9 0 5 19 7 42 3 40 -5 42
-4 26 11 -9 10 -32 17 -50 17 -27 0 -34 -4 -35 -20z"/>
<path d="M3940 3991 c0 -12 48 -27 57 -17 9 8 2 13 -30 21 -17 5 -27 3 -27 -4z"/>
<path d="M4516 3983 c23 -17 35 -16 28 1 -3 8 -15 14 -25 13 -19 -1 -19 -2 -3
-14z"/>
<path d="M3470 3980 c-11 -7 -7 -10 17 -10 17 0 35 5 38 10 8 13 -35 13 -55 0z"/>
<path d="M3868 3983 c12 -2 30 -2 40 0 9 3 -1 5 -23 4 -22 0 -30 -2 -17 -4z"/>
<path d="M5108 3973 c7 -3 16 -2 19 1 4 3 -2 6 -13 5 -11 0 -14 -3 -6 -6z"/>
<path d="M2570 3960 c-11 -7 -5 -8 20 -4 43 8 51 14 19 14 -13 0 -31 -5 -39
-10z"/>
<path d="M2914 3961 c3 -4 -27 -6 -67 -4 -52 3 -68 2 -57 -6 17 -12 85 -14
145 -4 31 5 35 8 20 14 -27 11 -47 11 -41 0z"/>
<path d="M5916 3956 c-21 -10 -24 -14 -13 -19 8 -3 23 3 33 14 20 22 19 22
-20 5z"/>
<path d="M3903 3953 c9 -2 23 -2 30 0 6 3 -1 5 -18 5 -16 0 -22 -2 -12 -5z"/>
<path d="M4528 3953 c7 -3 16 -2 19 1 4 3 -2 6 -13 5 -11 0 -14 -3 -6 -6z"/>
<path d="M5490 3950 c0 -5 5 -10 11 -10 5 0 7 5 4 10 -3 6 -8 10 -11 10 -2 0
-4 -4 -4 -10z"/>
<path d="M3018 3943 c6 -2 18 -2 25 0 6 3 1 5 -13 5 -14 0 -19 -2 -12 -5z"/>
<path d="M3580 3946 c0 -2 7 -7 16 -10 8 -3 12 -2 9 4 -6 10 -25 14 -25 6z"/>
<path d="M3645 3940 c11 -5 29 -9 40 -9 l20 0 -20 9 c-11 5 -29 9 -40 9 l-20
0 20 -9z"/>
<path d="M3988 3943 c6 -2 18 -2 25 0 6 3 1 5 -13 5 -14 0 -19 -2 -12 -5z"/>
<path d="M5330 3940 c0 -5 5 -10 10 -10 6 0 10 5 10 10 0 6 -4 10 -10 10 -5 0
-10 -4 -10 -10z"/>
<path d="M2162 3931 c-13 -8 12 -12 143 -26 44 -4 47 -6 -51 25 -37 12 -75 13
-92 1z"/>
<path d="M2758 3933 c7 -3 16 -2 19 1 4 3 -2 6 -13 5 -11 0 -14 -3 -6 -6z"/>
<path d="M3468 3933 c6 -2 18 -2 25 0 6 3 1 5 -13 5 -14 0 -19 -2 -12 -5z"/>
<path d="M4065 3930 c3 -5 14 -10 23 -10 15 0 15 2 2 10 -20 13 -33 13 -25 0z"/>
<path d="M4558 3933 c6 -2 18 -2 25 0 6 3 1 5 -13 5 -14 0 -19 -2 -12 -5z"/>
<path d="M3898 3923 c7 -3 16 -2 19 1 4 3 -2 6 -13 5 -11 0 -14 -3 -6 -6z"/>
<path d="M4135 3920 c11 -5 29 -9 40 -9 l20 0 -20 9 c-11 5 -29 9 -40 9 l-20
0 20 -9z"/>
<path d="M5718 3918 c5 -5 16 -8 23 -6 8 3 3 7 -10 11 -17 4 -21 3 -13 -5z"/>
<path d="M2793 3908 c-2 -5 11 -8 29 -8 18 0 44 -3 58 -7 22 -6 23 -5 10 9
-16 15 -88 19 -97 6z"/>
<path d="M2153 3899 c9 -6 16 -13 13 -17 -2 -4 10 -8 27 -9 18 -1 62 -5 100
-9 46 -4 67 -3 67 5 0 7 -21 11 -56 11 -34 0 -53 4 -49 10 3 6 -4 10 -17 11
-13 0 -41 2 -63 4 -31 3 -36 2 -22 -6z"/>
<path d="M3730 3900 c-13 -8 -13 -10 2 -10 9 0 20 5 23 10 8 13 -5 13 -25 0z"/>
<path d="M3548 3893 c6 -2 18 -2 25 0 6 3 1 5 -13 5 -14 0 -19 -2 -12 -5z"/>
<path d="M3678 3893 c7 -3 16 -2 19 1 4 3 -2 6 -13 5 -11 0 -14 -3 -6 -6z"/>
<path d="M3938 3893 c6 -2 18 -2 25 0 6 3 1 5 -13 5 -14 0 -19 -2 -12 -5z"/>
<path d="M5313 3889 c14 -8 22 -8 30 0 8 8 3 11 -18 11 -26 -1 -28 -2 -12 -11z"/>
<path d="M1910 3870 c0 -5 5 -10 10 -10 6 0 10 5 10 10 0 6 -4 10 -10 10 -5 0
-10 -4 -10 -10z"/>
<path d="M2863 3863 c9 -2 23 -2 30 0 6 3 -1 5 -18 5 -16 0 -22 -2 -12 -5z"/>
<path d="M3918 3863 c6 -2 18 -2 25 0 6 3 1 5 -13 5 -14 0 -19 -2 -12 -5z"/>
<path d="M3960 3860 c0 -5 4 -10 9 -10 6 0 13 5 16 10 3 6 -1 10 -9 10 -9 0
-16 -4 -16 -10z"/>
<path d="M5228 3863 c6 -2 18 -2 25 0 6 3 1 5 -13 5 -14 0 -19 -2 -12 -5z"/>
<path d="M2198 3853 c6 -2 18 -2 25 0 6 3 1 5 -13 5 -14 0 -19 -2 -12 -5z"/>
<path d="M3183 8493 c9 -2 23 -2 30 0 6 3 -1 5 -18 5 -16 0 -22 -2 -12 -5z"/>
<path d="M6932 8227 c-42 -13 -104 -81 -100 -110 5 -38 50 -34 82 7 22 29 34
36 61 36 47 0 84 -19 91 -46 10 -38 -23 -81 -119 -157 -106 -85 -113 -92 -119
-129 l-5 -28 164 0 164 0 -3 32 c-3 31 -5 33 -58 41 -30 5 -75 6 -100 4 l-44
-5 76 71 c119 113 140 177 82 247 -38 45 -104 59 -172 37z"/>
<path d="M7290 8218 c-49 -25 -94 -91 -88 -129 3 -19 7 -18 48 18 57 50 81 63
119 63 21 0 34 -7 41 -21 19 -34 4 -64 -41 -85 -48 -21 -169 -133 -169 -155 0
-26 70 -88 107 -95 49 -9 123 3 153 24 32 24 70 80 70 104 0 22 -55 58 -89 58
-19 0 -21 -3 -12 -14 7 -8 11 -32 9 -53 -3 -37 -4 -38 -51 -47 -49 -10 -76 -3
-85 22 -4 12 34 48 76 73 15 8 51 37 80 64 41 38 52 55 52 80 0 37 -36 76 -92
99 -50 21 -76 20 -128 -6z"/>
<path d="M8160 8118 c-57 -30 -67 -47 -51 -87 17 -39 62 -67 132 -83 85 -18
111 -51 67 -82 -31 -22 -84 -20 -124 5 -38 23 -89 23 -89 -1 0 -8 25 -28 55
-43 46 -24 64 -28 113 -25 138 10 177 121 61 176 -152 72 -163 81 -125 102 17
8 36 6 92 -14 58 -20 71 -22 76 -10 7 19 -13 41 -58 65 -50 25 -95 24 -149 -3z"/>
<path d="M7723 8123 c-92 -4 -86 1 -97 -91 -2 -24 -11 -51 -18 -60 -11 -13
-13 -46 -10 -149 l4 -133 48 0 47 0 -8 43 c-4 23 -8 55 -9 71 0 24 2 27 15 16
10 -9 15 -9 15 -1 0 17 33 13 91 -9 l52 -21 36 26 c21 14 42 25 49 25 18 0 92
99 92 123 0 89 -85 169 -176 165 -27 -1 -86 -4 -131 -5z m196 -102 c26 -62 26
-61 -6 -111 -28 -42 -28 -42 -78 -36 -27 3 -67 11 -87 16 -37 11 -38 12 -38
58 0 26 3 57 6 69 8 29 65 52 130 52 l52 1 21 -49z"/>
<path d="M6995 7610 c-3 -5 -1 -10 4 -10 6 0 11 5 11 10 0 6 -2 10 -4 10 -3 0
-8 -4 -11 -10z"/>
<path d="M6861 7553 c0 -48 2 -54 11 -36 6 12 20 24 32 26 20 4 20 4 -1 6 -18
1 -23 7 -23 27 0 22 4 25 28 22 21 -2 27 -8 26 -25 0 -13 3 -23 8 -23 5 0 8
12 6 28 -3 24 -7 27 -45 30 l-43 3 1 -58z"/>
<path d="M7963 7560 c0 -30 2 -43 4 -27 2 15 2 39 0 55 -2 15 -4 2 -4 -28z"/>
<path d="M8437 7592 c-23 -25 -21 -55 3 -77 27 -24 48 -13 56 31 5 30 3 40
-11 51 -24 17 -29 17 -48 -5z m51 -28 c2 -12 -5 -29 -14 -38 -15 -15 -19 -16
-32 -3 -22 23 -8 69 21 65 14 -2 23 -11 25 -24z"/>
<path d="M8548 7603 c-2 -5 -1 -24 3 -43 l6 -35 2 33 c1 28 5 32 29 33 24 0
25 1 7 9 -26 11 -43 12 -47 3z"/>
<path d="M7772 7578 c2 -16 10 -23 26 -24 20 -2 20 -1 2 3 -24 5 -21 29 3 27
9 -1 14 2 11 7 -3 5 -14 9 -25 9 -15 0 -20 -6 -17 -22z"/>
<path d="M8110 7581 c0 -11 5 -23 10 -26 6 -4 10 5 10 19 0 14 -4 26 -10 26
-5 0 -10 -9 -10 -19z"/>
<path d="M8220 7591 c0 -4 -11 -25 -25 -45 -13 -20 -21 -36 -17 -36 10 1 39
24 40 33 2 27 10 28 23 3 8 -16 21 -31 29 -34 10 -2 11 -1 4 5 -6 4 -17 25
-23 46 -11 33 -31 51 -31 28z"/>
<path d="M8322 7588 c-5 -7 -12 -24 -16 -38 -4 -17 -1 -14 10 9 12 27 19 32
39 29 13 -3 22 -1 19 3 -8 13 -40 11 -52 -3z"/>
<path d="M7093 7564 c-12 -19 -14 -30 -6 -43 13 -21 66 -26 82 -7 16 19 10 68
-9 73 -12 4 -12 3 -2 -5 8 -5 12 -22 10 -38 -3 -25 -7 -29 -33 -29 -23 0 -31
5 -33 21 -2 12 4 29 13 38 9 9 12 16 6 16 -6 0 -18 -12 -28 -26z"/>
<path d="M7240 7580 c0 -5 7 -7 15 -4 8 4 15 8 15 10 0 2 -7 4 -15 4 -8 0 -15
-4 -15 -10z"/>
<path d="M7631 7575 c0 -11 6 -31 14 -45 18 -32 19 -5 0 35 -10 23 -13 25 -14
10z"/>
<path d="M8020 7580 c0 -5 4 -10 9 -10 6 0 13 5 16 10 3 6 -1 10 -9 10 -9 0
-16 -4 -16 -10z"/>
<path d="M7706 7565 c-3 -9 -6 -26 -5 -38 1 -14 4 -9 9 13 9 37 7 52 -4 25z"/>
<path d="M8060 7560 c0 -5 5 -10 10 -10 6 0 10 5 10 10 0 6 -4 10 -10 10 -5 0
-10 -4 -10 -10z"/>
<path d="M7245 7549 c-4 -6 -5 -12 -2 -15 2 -3 7 2 10 11 7 17 1 20 -8 4z"/>
<path d="M7581 7548 c-2 -38 -67 -50 -81 -15 -5 13 -9 16 -9 7 -1 -22 19 -40
44 -40 26 0 59 33 52 52 -4 9 -6 7 -6 -4z"/>
<path d="M8350 7520 c-23 -7 -23 -8 -3 -9 12 -1 25 4 28 9 3 6 5 10 3 9 -2 -1
-14 -5 -28 -9z"/>
<path d="M7788 7503 c6 -2 18 -2 25 0 6 3 1 5 -13 5 -14 0 -19 -2 -12 -5z"/>
<path d="M8568 7503 c6 -2 18 -2 25 0 6 3 1 5 -13 5 -14 0 -19 -2 -12 -5z"/>
<path d="M6947 7374 c-11 -11 -8 -49 5 -62 27 -27 88 7 68 38 -8 12 -10 10
-10 -8 0 -27 -24 -39 -45 -22 -21 18 -20 52 3 48 10 -2 16 -11 14 -21 -2 -9 1
-17 6 -17 5 0 9 10 8 23 -1 22 -34 36 -49 21z"/>
<path d="M7049 7344 c-5 -15 -7 -29 -5 -32 5 -4 10 6 22 46 7 23 -7 12 -17
-14z"/>
<path d="M7232 7345 c0 -16 2 -22 5 -12 2 9 2 23 0 30 -3 6 -5 -1 -5 -18z"/>
<path d="M7257 7350 c3 -11 7 -20 9 -20 2 0 4 9 4 20 0 11 -4 20 -9 20 -5 0
-7 -9 -4 -20z"/>
<path d="M7472 7340 c0 -19 2 -27 5 -17 2 9 2 25 0 35 -3 9 -5 1 -5 -18z"/>
<path d="M7500 7335 c0 -19 4 -35 8 -35 4 0 6 16 4 35 -2 19 -6 35 -8 35 -2 0
-4 -16 -4 -35z"/>
<path d="M7520 7344 c0 -14 3 -14 16 -3 13 11 14 9 8 -16 -5 -20 -4 -26 5 -21
6 4 11 18 11 32 0 17 -5 24 -20 24 -12 0 -20 -7 -20 -16z"/>
<path d="M7292 7330 c0 -14 2 -19 5 -12 2 6 2 18 0 25 -3 6 -5 1 -5 -13z"/>
<path d="M7535 6721 c-571 -6 -581 -6 -621 -28 -45 -24 -103 -84 -131 -135
-17 -31 -18 -88 -18 -1048 l0 -1015 25 -48 c27 -54 105 -132 147 -148 15 -5
48 -14 73 -19 72 -14 1714 -22 1785 -9 33 6 71 11 84 11 18 0 20 2 10 9 -10 6
-10 9 -2 9 7 0 31 16 52 35 27 25 41 32 44 23 3 -7 5 -4 4 7 0 11 9 41 21 67
38 80 44 140 46 463 1 171 -1 281 -5 245 -3 -41 -6 1 -7 115 -1 99 1 218 6
265 7 85 7 85 12 30 3 -30 4 93 4 274 -1 196 -6 331 -11 335 -6 3 -11 71 -12
150 -2 153 -11 224 -35 268 -23 44 -87 100 -141 124 -49 22 -60 23 -400 24
-192 1 -611 -1 -930 -4z m-464 -20 c-29 -18 20 -30 135 -34 l119 -3 -143 -2
c-172 -2 -218 -13 -274 -61 -41 -36 -44 -37 -60 -19 -10 10 -13 18 -7 18 5 0
8 4 4 9 -13 22 67 79 126 90 56 10 116 11 100 2z m1766 -69 c130 -114 118 -50
116 -666 -1 -290 -5 -531 -8 -534 -19 -19 -469 0 -502 21 -6 4 -64 10 -128 12
-64 3 -126 10 -138 16 -11 6 -57 13 -101 15 -122 6 -178 11 -211 19 -23 5 -26
4 -15 -4 12 -9 11 -11 -8 -11 -15 0 -21 4 -16 12 5 8 0 9 -17 4 -54 -15 -89
-18 -102 -7 -8 6 -17 8 -20 4 -4 -3 -13 0 -22 7 -10 8 -23 9 -42 3 -16 -6 -40
-6 -55 -2 -16 4 -30 3 -34 -2 -3 -5 2 -9 10 -9 8 0 22 -7 30 -15 12 -12 37
-16 108 -15 51 1 118 1 148 2 95 1 251 -12 271 -23 16 -8 17 -13 6 -29 -6 -11
-22 -20 -35 -20 -13 0 -33 -5 -45 -11 -26 -15 -210 -14 -264 0 -21 6 -96 13
-167 15 -120 5 -270 29 -280 45 -3 4 -1 13 4 21 7 12 32 15 109 14 75 -1 98 2
94 11 -8 22 -130 23 -263 4 -69 -10 -168 -21 -220 -24 -52 -3 -102 -6 -110 -7
-8 -1 -32 0 -52 0 -36 2 -38 4 -38 36 0 59 7 66 66 66 30 0 54 5 54 10 0 6
-24 10 -53 10 l-54 0 -5 118 c-3 64 -3 214 1 333 5 193 8 219 25 238 10 11 23
18 29 14 6 -4 8 0 4 10 -4 11 1 20 13 27 26 14 212 199 235 233 10 15 28 30
41 33 13 3 24 12 24 20 0 11 62 14 358 16 328 3 1254 -5 1259 -10z m-474
-1189 c-13 -2 -33 -2 -45 0 -13 2 -3 4 22 4 25 0 35 -2 23 -4z m74 -9 c-3 -3
-12 -4 -19 -1 -8 3 -5 6 6 6 11 1 17 -2 13 -5z m128 -14 c14 -7 8 -8 -20 -3
-22 3 -42 7 -44 9 -9 8 45 2 64 -6z m101 -216 c30 -13 72 -10 199 12 93 17 90
19 93 -76 4 -124 -7 -147 -55 -117 -6 4 -15 2 -19 -5 -4 -6 -2 -14 4 -16 7 -2
11 -16 11 -30 -1 -20 -3 -22 -6 -8 -9 34 -36 55 -65 49 -16 -3 -28 -8 -28 -12
0 -9 38 -41 50 -41 6 0 10 -2 10 -4 0 -2 3 -12 6 -20 5 -13 2 -15 -12 -9 -23
8 -78 45 -82 56 -2 4 -21 10 -43 13 -38 6 -49 17 -29 29 16 10 0 27 -21 22
-14 -4 -19 0 -19 15 0 17 -3 18 -15 8 -9 -8 -15 -8 -15 -2 0 6 -20 9 -49 8
-57 -4 -103 -32 -95 -58 4 -14 1 -16 -12 -11 -13 5 -15 3 -10 -8 4 -8 1 -7 -6
3 -13 15 -40 22 -80 19 -12 -1 -15 -6 -11 -18 4 -11 3 -14 -5 -9 -7 4 -12 14
-12 22 0 8 -5 14 -11 14 -5 0 -8 -3 -5 -8 2 -4 -13 -6 -35 -4 -41 4 -45 1 -29
-28 9 -16 6 -17 -26 -10 -20 5 -38 11 -41 14 -4 3 -12 1 -19 -5 -7 -5 -38 -11
-69 -13 -42 -2 -61 2 -76 15 -14 12 -16 18 -7 22 7 3 -1 5 -17 4 -24 0 -31 -5
-33 -21 -1 -17 1 -18 8 -6 9 13 11 13 20 0 19 -29 12 -40 -22 -33 -18 3 -37 6
-43 7 -5 0 -17 9 -26 19 -20 21 -27 21 -31 1 -3 -13 -6 -13 -27 5 -13 12 -31
21 -40 21 -9 1 -33 7 -53 14 -31 11 -38 11 -38 1 0 -16 -31 -29 -39 -17 -24
36 -90 36 -106 0 -12 -26 -41 -39 -32 -15 8 21 -10 34 -59 45 -32 7 -45 6 -60
-7 -12 -9 -19 -21 -17 -27 2 -7 -14 -11 -42 -11 -42 0 -46 2 -41 22 4 17 -1
24 -28 33 -21 8 -42 9 -57 4 -27 -10 -52 -5 -44 8 3 5 -7 7 -22 5 -16 -2 -32
-4 -36 -4 -5 -1 -6 -19 -2 -41 4 -26 3 -40 -4 -40 -6 0 -11 18 -11 42 0 23 -3
38 -6 35 -4 -3 -15 -2 -25 3 -12 7 -20 7 -24 0 -4 -6 -10 -8 -14 -5 -5 2 -17
-2 -27 -10 -16 -11 -21 -11 -35 1 -13 12 -22 12 -45 4 -23 -9 -27 -9 -16 1 18
20 14 31 -7 19 -14 -7 -21 -6 -25 3 -5 9 -7 9 -12 -1 -5 -10 -9 -10 -20 -1
-12 10 -13 9 -8 -5 4 -10 1 -16 -8 -16 -10 0 -15 12 -16 40 -2 45 19 65 51 48
11 -5 28 -8 38 -5 11 3 37 -2 59 -10 51 -20 145 -5 167 27 11 16 18 18 28 10
10 -8 14 -7 18 2 4 10 8 10 16 -2 6 -8 11 -10 11 -4 0 7 6 14 14 17 10 4 12 0
8 -15 -3 -13 -1 -19 5 -15 6 4 16 0 23 -8 7 -8 20 -15 30 -15 10 0 23 -6 29
-14 7 -8 20 -15 29 -15 9 0 35 -2 57 -4 22 -2 46 1 53 6 9 7 24 4 48 -9 34
-18 36 -18 45 -1 12 21 69 21 111 0 18 -9 29 -10 33 -3 4 6 28 11 53 10 26 0
72 2 102 4 30 3 91 1 136 -5 73 -11 86 -10 141 9 37 13 85 21 129 21 101 1
127 4 146 21 9 9 31 17 48 18 17 1 41 11 53 22 11 11 27 20 34 20 8 0 16 7 19
15 7 16 32 13 90 -11z m-1400 -195 c19 -22 19 -22 -3 -8 -13 8 -23 17 -23 21
0 12 6 9 26 -13z m1389 11 c-3 -5 -11 -10 -16 -10 -6 0 -7 5 -4 10 3 6 11 10
16 10 6 0 7 -4 4 -10z m-585 -207 c0 -1 -10 -12 -22 -24 l-23 -21 24 12 c19
10 231 22 231 13 0 -1 -14 -6 -30 -10 -22 -6 -6 -8 57 -10 49 0 108 -6 133
-12 25 -6 68 -11 95 -11 32 0 45 -3 36 -9 -7 -5 -22 -6 -34 -3 -14 4 -18 2
-13 -7 5 -8 19 -10 38 -6 21 5 28 4 24 -4 -10 -16 47 -14 63 2 10 10 14 9 21
-3 7 -13 21 -15 82 -9 40 4 77 4 82 2 4 -3 12 0 16 7 7 11 17 11 54 0 45 -12
46 -14 47 -54 0 -22 2 -61 5 -86 6 -71 -13 -134 -53 -175 -19 -20 -40 -34 -46
-32 -7 2 -18 -2 -25 -10 -7 -7 -25 -14 -40 -14 -38 -2 -191 2 -224 6 -16 2
-31 -1 -34 -6 -3 -6 -15 -7 -27 -3 -12 4 -37 6 -56 5 -18 -1 -40 4 -49 11 -12
10 -14 10 -8 1 4 -8 1 -13 -8 -13 -9 0 -16 5 -16 10 0 6 -5 10 -11 10 -5 0 -7
-5 -3 -12 4 -7 3 -8 -5 -4 -7 4 -19 5 -27 2 -9 -3 -147 -8 -307 -10 -228 -2
-306 0 -357 11 -152 34 -153 34 -170 17 -14 -14 -12 -15 20 -13 55 3 80 0 80
-11 0 -6 -52 -8 -142 -5 -79 3 -210 7 -293 9 -98 2 -151 8 -153 15 -2 6 -7 11
-12 11 -5 0 -21 5 -37 12 l-28 11 35 6 c47 8 121 1 114 -10 -3 -5 -1 -9 5 -9
5 0 13 5 16 10 3 6 14 10 23 10 15 0 15 -2 2 -11 -12 -8 -10 -9 8 -4 15 4 24
1 28 -9 7 -17 34 -22 34 -6 0 6 10 10 22 10 40 0 10 12 -64 25 l-73 13 44 7
c42 8 43 8 20 21 l-24 12 28 7 c37 10 147 -2 189 -19 l33 -14 -52 1 c-28 1
-47 5 -41 8 5 3 -9 9 -33 13 -23 4 -44 4 -47 1 -3 -3 4 -5 15 -5 11 0 32 -9
47 -21 18 -14 44 -22 84 -24 45 -3 50 -2 22 5 -19 4 -27 8 -17 9 24 1 67 30
67 45 0 7 -3 6 -9 -2 -6 -10 -16 -11 -42 -4 -19 6 -28 11 -21 12 16 3 24 5 42
13 8 3 22 8 30 11 8 3 3 4 -12 2 -15 -1 -29 2 -31 8 -3 8 -8 7 -18 -1 -7 -7
-22 -13 -33 -13 -17 0 -18 -2 -6 -10 12 -8 10 -10 -8 -10 -13 0 -20 4 -17 10
4 6 -14 10 -44 11 -68 2 -71 2 -71 14 0 11 43 11 108 0 30 -6 42 -4 42 4 0 7
-4 9 -10 6 -5 -3 -10 -2 -10 4 0 6 -7 8 -15 5 -8 -3 -35 6 -59 20 -46 27 -90
34 -101 16 -3 -6 4 -10 17 -11 22 0 22 -1 3 -10 -15 -7 -12 -8 15 -4 25 4 31
2 20 -5 -8 -5 -25 -10 -37 -10 -27 0 -31 -17 -5 -23 9 -2 -24 -2 -73 0 -68 3
-97 1 -120 -11 -17 -9 -43 -16 -60 -15 -28 0 -28 1 -7 9 12 5 22 12 22 16 0 3
-7 4 -15 1 -8 -4 -17 -2 -20 3 -4 6 22 10 64 10 44 0 71 4 71 11 0 7 -21 9
-62 4 -78 -7 -90 0 -86 51 3 39 3 39 41 36 20 -2 37 0 37 5 0 5 10 9 21 10 12
1 27 7 33 14 11 11 4 11 -99 -7 -33 -6 -35 -5 -35 23 0 21 7 33 23 41 l22 11
-22 0 c-27 1 -30 17 -5 25 32 9 113 19 191 22 42 2 108 5 146 8 46 4 61 2 45
-3 -14 -5 -42 -9 -62 -10 -20 -1 -39 -5 -43 -10 -3 -6 3 -10 12 -9 10 0 53 -3
96 -6 43 -2 88 -1 100 4 19 8 17 9 -13 10 -19 0 -42 4 -50 10 -15 9 37 12 240
15 144 1 163 3 157 18 -3 9 18 12 92 10 63 -1 95 -6 93 -13 -1 -7 5 -7 20 2
13 6 46 11 75 10 28 -2 54 1 57 7 5 8 46 12 46 4z m-433 -9 c-3 -3 -12 -4 -19
-1 -8 3 -5 6 6 6 11 1 17 -2 13 -5z m-265 -17 c-15 -7 -26 -7 -33 0 -6 6 1 10
23 10 30 0 30 -1 10 -10z m1335 -53 c-3 -3 -12 -4 -19 -1 -8 3 -5 6 6 6 11 1
17 -2 13 -5z m-1612 -246 c4 -3 -23 -8 -59 -10 -36 -1 -66 -2 -66 0 0 14 112
23 125 10z m-35 -58 c-7 -4 -21 -5 -32 -2 -13 3 -16 7 -8 12 7 4 21 5 32 2 13
-3 16 -7 8 -12z m-97 3 c-7 -2 -21 -2 -30 0 -10 3 -4 5 12 5 17 0 24 -2 18 -5z"/>
<path d="M7380 5030 c0 -5 5 -10 11 -10 5 0 7 5 4 10 -3 6 -8 10 -11 10 -2 0
-4 -4 -4 -10z"/>
<path d="M7845 5020 c3 -5 11 -10 16 -10 6 0 7 5 4 10 -3 6 -11 10 -16 10 -6
0 -7 -4 -4 -10z"/>
<path d="M7773 4783 c9 -2 23 -2 30 0 6 3 -1 5 -18 5 -16 0 -22 -2 -12 -5z"/>
<path d="M7963 4773 c9 -2 23 -2 30 0 6 3 -1 5 -18 5 -16 0 -22 -2 -12 -5z"/>
<path d="M7450 4750 c-13 -8 -12 -10 3 -10 9 0 17 5 17 10 0 12 -1 12 -20 0z"/>
<path d="M6923 4733 c-13 -2 -23 -9 -23 -14 0 -13 27 -11 36 2 4 6 20 9 38 6
17 -3 49 -1 71 3 35 7 31 8 -30 7 -38 0 -80 -2 -92 -4z"/>
<path d="M8218 4733 c7 -3 16 -2 19 1 4 3 -2 6 -13 5 -11 0 -14 -3 -6 -6z"/>
<path d="M7163 4714 c-18 -8 -55 -15 -83 -16 -27 -1 -46 -5 -42 -9 10 -10 143
2 136 12 -3 5 7 9 21 9 15 0 24 4 20 10 -8 12 -12 12 -52 -6z"/>
<path d="M8008 4693 c7 -3 16 -2 19 1 4 3 -2 6 -13 5 -11 0 -14 -3 -6 -6z"/>
<path d="M8738 4693 c7 -3 16 -2 19 1 4 3 -2 6 -13 5 -11 0 -14 -3 -6 -6z"/>
<path d="M6870 4680 c20 -13 33 -13 25 0 -3 6 -14 10 -23 10 -15 0 -15 -2 -2
-10z"/>
<path d="M7139 4669 c-20 -12 15 -23 37 -11 15 8 14 10 -4 14 -11 3 -26 2 -33
-3z"/>
<path d="M7948 4673 c7 -3 16 -2 19 1 4 3 -2 6 -13 5 -11 0 -14 -3 -6 -6z"/>
<path d="M7678 4643 c7 -3 16 -2 19 1 4 3 -2 6 -13 5 -11 0 -14 -3 -6 -6z"/>
<path d="M8088 4633 c7 -3 16 -2 19 1 4 3 -2 6 -13 5 -11 0 -14 -3 -6 -6z"/>
<path d="M6973 4620 c-35 -14 -27 -20 10 -8 17 6 34 13 36 14 8 7 -24 3 -46
-6z"/>
<path d="M7280 4614 l-35 -12 37 -1 c20 -1 39 3 43 8 10 17 -9 19 -45 5z"/>
<path d="M7499 4609 c16 -6 28 -6 35 1 7 7 -1 10 -24 9 -33 0 -34 -1 -11 -10z"/>
<path d="M7700 4610 c0 -5 7 -10 15 -10 8 0 15 5 15 10 0 6 -7 10 -15 10 -8 0
-15 -4 -15 -10z"/>
<path d="M7650 4600 l-25 -8 28 -1 c15 -1 27 4 27 9 0 6 -1 10 -2 9 -2 -1 -14
-5 -28 -9z"/>
<path d="M7858 4603 c7 -3 16 -2 19 1 4 3 -2 6 -13 5 -11 0 -14 -3 -6 -6z"/>
<path d="M7376 4581 c-7 -10 83 -21 99 -12 6 3 -3 9 -20 12 -46 10 -73 10 -79
0z"/>
<path d="M7510 4580 c0 -5 8 -8 18 -8 9 1 35 -3 57 -7 26 -5 37 -4 30 2 -13
14 -105 25 -105 13z"/>
<path d="M7015 4560 c11 -5 29 -8 40 -8 16 0 15 2 -5 8 -34 11 -60 11 -35 0z"/>
<path d="M7953 4563 c9 -2 25 -2 35 0 9 3 1 5 -18 5 -19 0 -27 -2 -17 -5z"/>
<path d="M8015 4550 c3 -5 12 -7 20 -3 21 7 19 13 -6 13 -11 0 -18 -4 -14 -10z"/>
<path d="M7570 4541 c8 -5 35 -11 60 -14 25 -2 36 -2 25 0 -11 3 -24 9 -29 14
-6 5 -24 9 -40 9 -23 -1 -27 -3 -16 -9z"/>
<path d="M8210 4540 c-20 -6 -21 -8 -5 -8 11 0 34 4 50 8 27 7 27 8 5 8 -14 0
-36 -4 -50 -8z"/>
<path d="M7470 4530 c0 -5 4 -10 9 -10 5 0 18 -3 28 -7 17 -6 17 -6 1 10 -18
19 -38 22 -38 7z"/>
<path d="M7880 4520 c0 -5 17 -10 38 -9 30 0 33 2 17 9 -28 12 -55 12 -55 0z"/>
<path d="M7735 4509 c-18 -5 1 -6 50 -2 44 3 82 7 84 9 8 7 -104 2 -134 -7z"/>
<path d="M8083 4513 c9 -2 25 -2 35 0 9 3 1 5 -18 5 -19 0 -27 -2 -17 -5z"/>
<path d="M7625 4490 c27 -12 35 -12 35 0 0 6 -12 10 -27 9 -25 0 -26 -1 -8 -9z"/>
<path d="M7470 4476 c-14 -6 -31 -16 -38 -23 -10 -9 -4 -11 25 -6 44 7 55 14
45 29 -5 8 -14 8 -32 0z"/>
<path d="M7694 4478 c-6 -10 175 -3 185 7 2 3 -37 4 -87 4 -52 0 -94 -5 -98
-11z"/>
<path d="M8684 4471 c5 -8 56 -3 56 5 0 2 -14 4 -31 4 -16 0 -28 -4 -25 -9z"/>
<path d="M7148 4463 c7 -3 16 -2 19 1 4 3 -2 6 -13 5 -11 0 -14 -3 -6 -6z"/>
<path d="M7698 4453 c7 -3 16 -2 19 1 4 3 -2 6 -13 5 -11 0 -14 -3 -6 -6z"/>
<path d="M7765 4450 c-8 -13 45 -13 65 0 11 7 6 10 -22 10 -20 0 -40 -4 -43
-10z"/>
<path d="M7923 4453 c9 -2 23 -2 30 0 6 3 -1 5 -18 5 -16 0 -22 -2 -12 -5z"/>
<path d="M8629 4449 c-11 -7 -11 -9 4 -9 9 0 17 -4 17 -8 0 -4 24 -3 54 2 30
6 53 13 51 17 -5 7 -49 4 -64 -6 -6 -3 -19 -2 -29 4 -11 6 -24 6 -33 0z"/>
<path d="M8000 4419 c0 -5 5 -7 10 -4 6 3 10 8 10 11 0 2 -4 4 -10 4 -5 0 -10
-5 -10 -11z"/>
<path d="M7793 4413 c15 -2 37 -2 50 0 12 2 0 4 -28 4 -27 0 -38 -2 -22 -4z"/>
<path d="M6993 4393 c9 -2 23 -2 30 0 6 3 -1 5 -18 5 -16 0 -22 -2 -12 -5z"/>
<path d="M8297 4389 c7 -7 15 -10 18 -7 3 3 -2 9 -12 12 -14 6 -15 5 -6 -5z"/>
<path d="M7238 4373 c12 -2 30 -2 40 0 9 3 -1 5 -23 4 -22 0 -30 -2 -17 -4z"/>
<path d="M7980 4370 c0 -5 5 -10 10 -10 6 0 10 5 10 10 0 6 -4 10 -10 10 -5 0
-10 -4 -10 -10z"/>
<path d="M5842 3388 c-26 -26 -6 -88 28 -88 11 0 27 11 36 25 15 23 15 27 0
50 -18 27 -45 32 -64 13z m56 -37 c-5 -24 -38 -27 -38 -3 0 10 3 21 6 25 11
11 35 -5 32 -22z"/>
<path d="M6978 3362 c-20 -34 -23 -52 -8 -52 6 0 10 6 10 14 0 27 22 29 41 5
15 -19 19 -21 19 -7 0 9 -10 29 -22 43 l-23 26 -17 -29z"/>
<path d="M7129 3383 c-1 -5 0 -19 1 -32 1 -18 -2 -22 -14 -18 -9 4 -16 2 -16
-3 0 -6 -7 -10 -16 -10 -24 0 -11 23 17 31 22 6 22 7 3 8 -23 1 -51 -25 -40
-37 4 -4 23 -7 42 -7 33 0 34 1 34 38 0 20 -2 37 -5 37 -3 0 -5 -3 -6 -7z"/>
<path d="M7162 3358 c-15 -15 -16 -38 -2 -38 6 0 10 9 10 20 0 15 7 20 24 20
19 0 26 -6 29 -27 4 -26 4 -26 6 5 1 29 -2 32 -27 32 -15 0 -33 -5 -40 -12z"/>
<path d="M7247 3346 c-4 -15 -6 -31 -2 -34 10 -10 16 6 13 35 l-3 28 -8 -29z"/>
<path d="M7280 3345 c0 -14 4 -25 8 -25 4 0 8 11 8 25 0 14 -4 25 -8 25 -4 0
-8 -11 -8 -25z"/>
<path d="M7345 3357 c10 -8 15 -19 11 -25 -4 -7 -2 -12 3 -12 12 0 14 11 5 34
-3 9 -13 16 -22 16 -13 0 -13 -2 3 -13z"/>
<path d="M7387 3363 c-10 -9 -9 -41 2 -47 4 -3 6 6 3 19 -2 14 0 25 6 25 6 0
13 -10 15 -22 4 -20 4 -19 6 5 1 26 -16 37 -32 20z"/>
<path d="M7441 3358 c0 -7 5 -22 10 -33 8 -17 9 -16 6 7 -2 15 1 29 7 32 6 2
3 5 -6 5 -10 1 -18 -5 -17 -11z"/>
<path d="M7482 3345 c0 -16 2 -22 5 -12 2 9 2 23 0 30 -3 6 -5 -1 -5 -18z"/>
<path d="M7500 3361 c0 -6 4 -13 10 -16 6 -3 7 1 4 9 -7 18 -14 21 -14 7z"/>
<path d="M7526 3362 c7 -4 14 -18 17 -32 4 -21 4 -20 6 8 1 24 -3 32 -16 32
-12 0 -14 -3 -7 -8z"/>
<path d="M7600 3346 c0 -14 4 -27 9 -30 4 -3 6 6 3 19 -2 14 0 25 6 25 6 0 13
-11 15 -25 4 -23 4 -23 3 2 -1 37 -36 46 -36 9z"/>
<path d="M7687 3351 c-4 -17 -3 -21 5 -13 5 5 8 16 6 23 -3 8 -7 3 -11 -10z"/>
<path d="M7710 3350 c0 -26 16 -34 25 -12 7 15 9 14 15 -8 8 -24 8 -24 9 5 1
25 -3 30 -24 31 -18 1 -25 -3 -25 -16z"/>
<path d="M7853 3363 c-15 -5 -17 -39 -4 -47 5 -3 12 1 15 10 3 8 2 12 -4 9
-14 -9 -12 9 2 23 13 13 11 14 -9 5z"/>
<path d="M7900 3359 c0 -5 5 -7 10 -4 6 3 10 8 10 11 0 2 -4 4 -10 4 -5 0 -10
-5 -10 -11z"/>
<path d="M7926 3353 c-4 -10 0 -23 10 -32 15 -15 16 -14 9 8 -5 15 -3 26 6 32
11 7 11 9 -2 9 -9 0 -20 -8 -23 -17z"/>
<path d="M7971 3338 l2 -33 5 30 c5 30 5 30 12 5 l6 -25 6 28 c4 22 2 27 -13
27 -15 0 -19 -7 -18 -32z"/>
<path d="M8016 3355 c-3 -9 -6 -22 -5 -28 0 -7 5 -1 10 12 5 13 8 26 5 28 -2
2 -6 -3 -10 -12z"/>
<path d="M8038 3347 c-3 -19 -2 -25 4 -19 6 6 8 18 6 28 -3 14 -5 12 -10 -9z"/>
<path d="M8065 3359 c-4 -6 -4 -13 -1 -16 3 -4 6 -1 6 5 0 6 8 13 18 15 15 4
15 5 0 6 -9 0 -20 -4 -23 -10z"/>
<path d="M8111 3363 c-1 -6 -4 -20 -7 -30 -5 -17 -5 -17 6 0 6 10 9 23 6 30
-3 9 -5 9 -5 0z"/>
<path d="M8161 3338 c2 -31 2 -31 6 -5 2 15 9 27 15 27 6 0 8 -11 6 -25 -6
-31 0 -32 11 -2 5 14 4 25 -3 29 -24 16 -36 8 -35 -24z"/>
<path d="M8329 3338 c4 -28 6 -29 9 -9 2 13 0 27 -5 32 -6 6 -7 -3 -4 -23z"/>
<path d="M7310 3341 c0 -12 5 -21 10 -21 6 0 10 6 10 14 0 8 -4 18 -10 21 -5
3 -10 -3 -10 -14z"/>
<path d="M7572 3335 c0 -16 2 -22 5 -12 2 9 2 23 0 30 -3 6 -5 -1 -5 -18z"/>
<path d="M7810 3350 c13 -9 13 -11 0 -19 -18 -12 -9 -23 9 -11 16 9 8 40 -11
40 -9 0 -9 -3 2 -10z"/>
<path d="M8218 3337 c-3 -19 -2 -25 4 -19 6 6 8 18 6 28 -3 14 -5 12 -10 -9z"/>
<path d="M8248 3353 c6 -2 18 -2 25 0 6 3 1 5 -13 5 -14 0 -19 -2 -12 -5z"/>
<path d="M8302 3335 c0 -16 2 -22 5 -12 2 9 2 23 0 30 -3 6 -5 -1 -5 -18z"/>
<path d="M8362 3335 c0 -16 2 -22 5 -12 2 9 2 23 0 30 -3 6 -5 -1 -5 -18z"/>
<path d="M8388 3335 c2 -14 6 -25 8 -25 2 0 4 11 4 25 0 14 -4 25 -9 25 -4 0
-6 -11 -3 -25z"/>
<path d="M8420 3335 c0 -14 4 -25 9 -25 4 0 6 11 3 25 -2 14 -6 25 -8 25 -2 0
-4 -11 -4 -25z"/>
<path d="M8480 3350 c-18 -12 -2 -12 25 0 13 6 15 9 5 9 -8 0 -22 -4 -30 -9z"/>
<path d="M7781 3334 c0 -11 3 -14 6 -6 3 7 2 16 -1 19 -3 4 -6 -2 -5 -13z"/>
<path d="M8450 3338 c0 -9 5 -20 10 -23 13 -8 13 5 0 25 -8 13 -10 13 -10 -2z"/>
<path d="M8251 3324 c0 -11 3 -14 6 -6 3 7 2 16 -1 19 -3 4 -6 -2 -5 -13z"/>
<path d="M8271 3324 c0 -11 3 -14 6 -6 3 7 2 16 -1 19 -3 4 -6 -2 -5 -13z"/>
<path d="M8550 3332 c0 -5 7 -9 15 -9 8 0 12 4 9 9 -3 4 -9 8 -15 8 -5 0 -9
-4 -9 -8z"/>
<path d="M7190 3319 c0 -5 5 -7 10 -4 6 3 10 8 10 11 0 2 -4 4 -10 4 -5 0 -10
-5 -10 -11z"/>
<path d="M7655 3320 c3 -5 8 -10 11 -10 2 0 4 5 4 10 0 6 -5 10 -11 10 -5 0
-7 -4 -4 -10z"/>
<path d="M8516 3307 c3 -10 9 -15 12 -12 3 3 0 11 -7 18 -10 9 -11 8 -5 -6z"/>
<path d="M8485 3300 c3 -5 11 -10 16 -10 6 0 7 5 4 10 -3 6 -11 10 -16 10 -6
0 -7 -4 -4 -10z"/>
<path d="M7238 3215 c-3 -14 -2 -25 2 -25 11 0 20 39 10 45 -4 3 -10 -6 -12
-20z"/>
<path d="M8107 3233 c-4 -3 -7 -18 -6 -32 0 -14 3 -19 6 -11 14 43 16 44 23
15 l8 -30 1 33 c1 30 -15 43 -32 25z"/>
<path d="M6960 3204 c0 -15 4 -23 11 -19 6 4 8 14 5 24 -5 14 -5 14 6 0 17
-20 49 -32 45 -16 -1 6 9 13 22 15 14 2 21 0 17 -6 -4 -6 -2 -13 3 -16 10 -7
9 13 -2 31 -5 8 -17 9 -37 3 -18 -5 -32 -5 -35 1 -13 19 -35 9 -35 -17z"/>
<path d="M7090 3210 c0 -11 4 -20 9 -20 5 0 7 9 4 20 -3 11 -7 20 -9 20 -2 0
-4 -9 -4 -20z"/>
<path d="M7123 3223 c-19 -7 -16 -21 10 -34 20 -11 21 -11 8 5 -8 9 -11 20 -7
24 4 4 13 -1 20 -11 16 -21 23 -21 42 -3 22 22 17 32 -6 11 -18 -16 -20 -16
-20 -2 0 17 -21 21 -47 10z"/>
<path d="M7277 3223 c-4 -3 -7 -15 -7 -25 0 -15 7 -17 40 -14 39 3 69 16 39
16 -11 0 -11 2 1 10 22 14 33 12 27 -5 -4 -8 -2 -17 3 -20 4 -3 10 1 13 7 3
10 7 10 21 -1 14 -12 16 -12 10 3 -3 9 -1 16 4 16 6 0 13 -8 15 -17 3 -11 5
-7 6 10 1 27 -21 38 -34 17 -5 -8 -11 -7 -21 1 -11 9 -20 9 -41 0 -18 -8 -29
-9 -37 -1 -11 11 -29 13 -39 3z m37 -12 c3 -5 -3 -11 -14 -14 -20 -5 -26 3
-13 16 9 10 21 9 27 -2z"/>
<path d="M7470 3205 c0 -14 4 -25 9 -25 5 0 9 11 9 25 0 14 -4 25 -9 25 -5 0
-9 -11 -9 -25z"/>
<path d="M7507 3223 c-4 -3 -7 -13 -6 -22 0 -12 3 -11 9 4 8 18 9 18 9 2 1
-21 21 -13 21 9 0 14 -21 19 -33 7z"/>
<path d="M7560 3215 c-19 -23 -3 -34 50 -33 47 0 69 15 54 39 -7 13 -44 11
-44 -2 0 -5 4 -8 9 -4 5 3 12 1 16 -5 9 -15 -17 -12 -39 5 -25 19 -31 19 -46
0z m40 -9 c0 -2 -9 -6 -20 -9 -11 -3 -20 -1 -20 4 0 5 9 9 20 9 11 0 20 -2 20
-4z"/>
<path d="M7680 3205 c0 -29 29 -34 54 -9 15 14 16 14 16 0 0 -9 3 -16 8 -16 4
0 7 11 7 25 0 20 -4 24 -20 18 -11 -3 -25 -13 -32 -22 -11 -14 -12 -13 -13 7
0 12 -4 22 -10 22 -5 0 -10 -11 -10 -25z"/>
<path d="M7868 3222 c7 -5 10 -17 7 -28 -6 -19 -6 -19 9 0 22 27 20 36 -6 36
-16 0 -19 -3 -10 -8z"/>
<path d="M7914 3215 c-9 -23 5 -35 37 -33 23 2 29 7 29 26 0 13 -4 20 -10 17
-6 -4 -8 -10 -5 -15 7 -11 -19 -20 -35 -10 -9 6 -8 10 6 19 18 10 18 10 1 11
-10 0 -20 -7 -23 -15z"/>
<path d="M7997 3224 c-11 -11 -8 -44 3 -44 6 0 10 9 10 20 0 16 7 20 31 20 23
0 30 -4 26 -15 -4 -8 -2 -17 2 -20 8 -4 21 16 21 34 0 10 -84 14 -93 5z"/>
<path d="M8157 3223 c-15 -14 -6 -23 13 -13 17 9 22 7 30 -12 6 -16 9 -18 9
-7 1 20 24 31 46 23 8 -4 15 -1 15 5 0 15 -43 14 -58 -1 -9 -9 -12 -9 -12 0 0
13 -32 17 -43 5z"/>
<path d="M8271 3204 c-12 -28 2 -32 21 -6 19 25 59 22 69 -6 9 -24 16 -26 39
-12 9 6 19 5 28 -2 17 -15 47 14 38 37 -7 18 -42 16 -38 -3 3 -16 -13 -15 -27
2 -8 9 -32 15 -65 15 -47 0 -55 -3 -65 -25z m124 -14 c-3 -5 -10 -10 -16 -10
-5 0 -9 5 -9 10 0 6 7 10 16 10 8 0 12 -4 9 -10z m55 0 c0 -5 -5 -10 -11 -10
-5 0 -7 5 -4 10 3 6 8 10 11 10 2 0 4 -4 4 -10z"/>
<path d="M8480 3200 c0 -22 5 -30 18 -30 13 0 14 2 3 9 -10 7 -11 13 -2 30 10
17 9 21 -4 21 -10 0 -15 -10 -15 -30z"/>
<path d="M8555 3220 c-3 -5 -12 -7 -20 -3 -9 3 -15 -1 -15 -10 0 -20 16 -31
25 -17 3 5 18 10 33 10 21 0 24 -2 12 -10 -9 -6 -10 -10 -3 -10 6 0 15 5 18
10 4 6 11 8 16 5 5 -4 9 1 9 9 0 9 7 16 15 16 18 0 20 -26 3 -33 -8 -3 -6 -6
5 -6 12 -1 17 7 17 24 0 27 -26 35 -47 14 -8 -8 -13 -8 -17 0 -9 14 -43 14
-51 1z m32 -6 c-3 -3 -12 -4 -19 -1 -8 3 -5 6 6 6 11 1 17 -2 13 -5z"/>
<path d="M8697 3223 c-15 -15 -7 -43 13 -43 11 0 20 5 20 11 0 6 -7 9 -15 5
-9 -3 -15 0 -15 10 0 10 6 14 15 10 8 -3 15 -1 15 4 0 11 -23 13 -33 3z"/>
<path d="M8740 3205 c0 -34 40 -36 41 -2 1 21 1 21 9 -3 l8 -25 1 28 c1 24 -3
27 -29 27 -25 0 -30 -4 -30 -25z m30 0 c0 -8 -4 -15 -10 -15 -5 0 -7 7 -4 15
4 8 8 15 10 15 2 0 4 -7 4 -15z"/>
<path d="M7788 3214 c6 -3 10 -10 6 -15 -3 -5 0 -9 5 -9 6 0 11 5 11 10 0 6 8
10 18 9 10 0 12 -3 5 -6 -18 -7 -16 -20 2 -20 9 0 15 7 13 16 -2 10 -15 17
-38 18 -19 1 -29 0 -22 -3z"/>
<path d="M8026 3201 c-3 -5 1 -11 9 -14 9 -4 12 -1 8 9 -6 16 -10 17 -17 5z"/>
<path d="M8170 3195 c-11 -13 -10 -14 4 -9 9 3 16 10 16 15 0 13 -6 11 -20 -6z"/>
<path d="M8221 3184 c0 -11 3 -14 6 -6 3 7 2 16 -1 19 -3 4 -6 -2 -5 -13z"/>
<path d="M8310 3185 c0 -8 2 -15 4 -15 2 0 6 7 10 15 3 8 1 15 -4 15 -6 0 -10
-7 -10 -15z"/>
<path d="M8583 3092 c-18 -2 -33 -7 -33 -11 0 -5 11 -6 25 -3 19 3 25 0 26
-14 0 -15 2 -14 10 5 11 28 13 27 -28 23z"/>
<path d="M7267 3083 c-3 -5 -1 -17 4 -28 7 -17 8 -17 8 8 1 27 -4 34 -12 20z"/>
<path d="M7523 3083 c-17 -6 -17 -43 0 -43 7 0 19 6 26 13 11 9 12 9 7 0 -5
-9 8 -12 54 -11 33 1 60 3 60 5 0 2 -10 8 -22 13 -22 8 -22 9 -2 9 11 1 26 -5
33 -11 10 -11 12 -9 9 7 -2 14 -11 20 -28 20 -14 0 -31 -9 -38 -20 -10 -16
-12 -16 -10 -3 2 9 0 17 -4 17 -22 2 -28 0 -28 -10 0 -5 5 -7 12 -3 7 4 8 3 4
-4 -10 -16 -26 -15 -26 2 0 15 -27 25 -47 19z m17 -13 c0 -5 -5 -10 -11 -10
-5 0 -7 5 -4 10 3 6 8 10 11 10 2 0 4 -4 4 -10z"/>
<path d="M7711 3076 c-15 -18 -6 -36 17 -35 11 0 12 3 5 6 -20 7 -15 23 7 23
14 0 18 -5 13 -17 -4 -11 -3 -14 5 -9 14 8 16 36 3 36 -5 0 -16 2 -24 5 -7 3
-19 -1 -26 -9z"/>
<path d="M7793 3083 c-16 -6 -17 -30 -1 -39 8 -5 9 -2 5 10 -5 14 -3 17 8 12
8 -3 15 -1 15 4 0 12 -13 18 -27 13z"/>
<path d="M7840 3075 c-10 -12 -10 -19 -2 -27 9 -9 12 -8 12 4 0 9 5 20 12 24
8 5 9 2 5 -9 -7 -19 8 -23 19 -6 3 6 0 15 -7 20 -19 12 -25 11 -39 -6z"/>
<path d="M7937 3083 c-4 -3 -7 -13 -7 -22 1 -13 3 -13 11 2 11 19 8 33 -4 20z"/>
<path d="M8067 3084 c-4 -4 -7 -14 -7 -23 1 -12 3 -11 12 4 12 19 12 19 19 -5
l8 -25 -2 24 c-2 25 -17 37 -30 25z"/>
<path d="M8122 3078 c-15 -15 -16 -28 -2 -28 6 0 10 7 10 15 0 10 9 14 25 13
14 -1 25 -9 25 -17 0 -11 3 -10 13 4 8 10 19 15 25 11 7 -4 12 -2 12 3 0 15
-93 14 -108 -1z"/>
<path d="M8251 3081 c-16 -10 -8 -41 11 -40 10 0 10 2 1 6 -20 7 -15 23 10 33
12 5 15 9 7 9 -8 0 -21 -3 -29 -8z"/>
<path d="M8310 3086 c0 -2 14 -6 30 -8 17 -3 30 -1 30 4 0 4 -13 8 -30 8 -16
0 -30 -2 -30 -4z"/>
<path d="M8393 3074 c-3 -8 -1 -20 5 -26 7 -7 10 -5 9 8 -1 11 6 20 18 22 16
2 17 1 5 -7 -13 -9 -13 -11 2 -11 9 0 18 -6 21 -12 2 -7 4 -1 4 15 0 23 -3 27
-29 27 -17 0 -31 -6 -35 -16z"/>
<path d="M8473 3075 c-3 -9 -3 -19 1 -22 3 -4 6 1 6 10 0 20 21 22 38 5 9 -9
12 -8 12 5 0 22 -48 23 -57 2z"/>
<path d="M8636 3074 c-9 -23 -8 -24 24 -24 23 0 30 4 30 20 0 25 -45 28 -54 4z
m39 -4 c3 -5 -1 -10 -9 -10 -9 0 -16 5 -16 10 0 6 4 10 9 10 6 0 13 -4 16 -10z"/>
<path d="M8702 3065 c0 -16 2 -22 5 -12 2 9 2 23 0 30 -3 6 -5 -1 -5 -18z"/>
<path d="M8729 3088 c-6 -13 -4 -46 2 -42 5 3 9 13 10 22 0 14 2 13 9 -3 8
-19 9 -19 9 3 1 13 -5 22 -14 22 -8 0 -16 -1 -16 -2z"/>
<path d="M8775 3079 c-4 -6 0 -18 9 -27 15 -15 16 -15 16 5 0 25 -15 38 -25
22z"/>
<path d="M6960 3062 l0 -24 135 4 c74 1 135 6 135 11 0 4 -8 7 -17 8 -15 0
-15 2 2 9 16 7 14 9 -12 7 -18 -1 -33 -5 -33 -9 0 -4 -9 -8 -21 -8 -11 0 -17
5 -14 10 3 6 1 10 -4 10 -6 0 -11 -4 -11 -10 0 -5 -15 -10 -32 -10 -25 0 -29
3 -18 10 9 6 10 10 3 10 -6 0 -15 -4 -18 -10 -3 -5 -14 -10 -23 -10 -15 0 -15
2 -2 10 13 8 13 10 -1 10 -9 0 -19 -3 -23 -7 -11 -11 -30 -10 -38 2 -4 5 -8
-1 -8 -13z"/>
<path d="M7301 3071 c-7 -5 -10 -14 -7 -20 9 -15 39 -14 55 2 11 9 12 9 7 0
-5 -9 0 -12 16 -11 15 1 24 8 24 20 0 23 -13 23 -19 1 -4 -17 -5 -17 -6 0 -1
19 -45 24 -70 8z"/>
<path d="M7433 3066 c3 -8 1 -17 -6 -20 -7 -2 -4 -5 6 -5 11 -1 17 6 17 19 0
11 -5 20 -11 20 -6 0 -9 -6 -6 -14z"/>
<path d="M7470 3059 c0 -11 5 -17 10 -14 6 3 10 13 10 21 0 8 -4 14 -10 14 -5
0 -10 -9 -10 -21z"/>
<path d="M7897 3065 c-4 -8 -2 -17 3 -20 6 -4 10 3 10 14 0 25 -6 27 -13 6z"/>
<path d="M7961 3063 c0 -11 3 -13 6 -5 2 6 11 12 19 12 9 0 12 -4 9 -10 -3 -5
-1 -10 4 -10 6 0 11 7 11 15 0 9 -9 15 -25 15 -17 0 -25 -5 -24 -17z"/>
<path d="M8285 3061 c-3 -5 -1 -12 4 -15 5 -3 11 1 15 9 6 16 -9 21 -19 6z"/>
<path d="M8145 3050 c-3 -5 -1 -10 4 -10 6 0 11 5 11 10 0 6 -2 10 -4 10 -3 0
-8 -4 -11 -10z"/>
<path d="M8205 3050 c-3 -5 -1 -10 4 -10 6 0 11 5 11 10 0 6 -2 10 -4 10 -3 0
-8 -4 -11 -10z"/>
<path d="M7521 2934 c-1 -31 0 -32 32 -25 17 4 45 6 60 4 21 -3 28 0 25 9 -6
17 -75 23 -93 8 -11 -9 -14 -6 -18 12 -3 18 -5 16 -6 -8z"/>
<path d="M6972 2925 c0 -16 2 -22 5 -12 2 9 2 23 0 30 -3 6 -5 -1 -5 -18z"/>
<path d="M7170 2926 c0 -31 6 -34 13 -6 3 11 1 23 -4 26 -5 3 -9 -6 -9 -20z"/>
<path d="M7219 2928 c0 -22 -1 -22 -10 -3 -8 19 -9 19 -6 1 3 -30 27 -32 27
-2 0 32 -10 35 -11 4z"/>
<path d="M7260 2925 c1 -26 2 -28 11 -12 8 14 8 22 0 30 -8 8 -11 3 -11 -18z"/>
<path d="M7290 2935 c0 -5 4 -16 9 -23 7 -11 9 -11 14 2 4 9 12 16 18 16 8 0
8 -4 -1 -15 -8 -9 -9 -15 -2 -15 6 0 14 5 17 10 4 6 11 8 16 5 5 -4 9 0 9 8 0
10 -13 16 -40 19 -23 2 -40 -1 -40 -7z"/>
<path d="M7473 2925 c0 -13 3 -22 8 -19 5 3 9 14 9 25 0 10 -4 19 -9 19 -5 0
-8 -11 -8 -25z"/>
<path d="M8250 2935 c-7 -9 -11 -17 -9 -20 3 -2 10 5 17 15 14 24 10 26 -8 5z"/>
<path d="M6990 2926 c0 -8 7 -16 15 -20 8 -3 15 -1 15 3 0 5 -6 12 -12 14 -8
3 -6 6 5 6 9 1 17 -5 17 -13 0 -9 9 -14 20 -13 12 1 20 8 20 19 0 14 -8 18
-40 18 -28 0 -40 -4 -40 -14z m70 0 c0 -3 -4 -8 -10 -11 -5 -3 -10 -1 -10 4 0
6 5 11 10 11 6 0 10 -2 10 -4z"/>
<path d="M7081 2918 c0 -22 1 -22 8 -3 l8 20 5 -20 c5 -18 6 -18 7 3 1 13 -5
22 -14 22 -9 0 -15 -9 -14 -22z"/>
<path d="M7120 2924 c0 -8 5 -12 10 -9 6 3 10 10 10 16 0 5 -4 9 -10 9 -5 0
-10 -7 -10 -16z"/>
<path d="M7152 2920 c0 -14 2 -19 5 -12 2 6 2 18 0 25 -3 6 -5 1 -5 -13z"/>
<path d="M7241 2924 c0 -11 3 -14 6 -6 3 7 2 16 -1 19 -3 4 -6 -2 -5 -13z"/>
<path d="M7386 2925 c4 -8 8 -15 10 -15 2 0 4 7 4 15 0 8 -4 15 -10 15 -5 0
-7 -7 -4 -15z"/>
<path d="M7410 2924 c0 -8 5 -12 10 -9 6 4 8 11 5 16 -9 14 -15 11 -15 -7z"/>
<path d="M7442 2920 c0 -14 2 -19 5 -12 2 6 2 18 0 25 -3 6 -5 1 -5 -13z"/>
<path d="M7651 2928 c-1 -10 6 -18 14 -18 8 0 15 8 15 18 0 13 -2 14 -9 3 -7
-11 -9 -11 -14 0 -4 10 -6 9 -6 -3z"/>
<path d="M7702 2933 c-6 -2 -10 -9 -6 -14 8 -14 21 -11 21 6 0 8 -1 15 -1 14
-1 0 -7 -3 -14 -6z"/>
<path d="M7755 2931 c-3 -5 -2 -12 3 -15 5 -3 9 1 9 9 0 17 -3 19 -12 6z"/>
<path d="M7791 2924 c0 -11 3 -14 6 -6 3 7 2 16 -1 19 -3 4 -6 -2 -5 -13z"/>
<path d="M8061 2924 c0 -11 3 -14 6 -6 3 7 2 16 -1 19 -3 4 -6 -2 -5 -13z"/>
<path d="M8155 2930 c-3 -5 -1 -10 4 -10 6 0 11 5 11 10 0 6 -2 10 -4 10 -3 0
-8 -4 -11 -10z"/>
<path d="M8290 2931 c0 -5 -8 -12 -17 -14 -14 -4 -12 -5 5 -6 13 -1 22 5 22
14 0 8 -2 15 -5 15 -3 0 -5 -4 -5 -9z"/>
<path d="M7855 2921 c-3 -6 4 -9 15 -8 11 1 20 5 20 9 0 11 -28 10 -35 -1z"/>
<path d="M1670 2590 c0 -32 4 -40 18 -39 9 0 12 3 5 5 -7 3 -9 18 -6 40 4 22
2 34 -6 34 -6 0 -11 -17 -11 -40z"/>
<path d="M3817 2624 c-4 -4 -7 -20 -7 -36 0 -26 3 -29 28 -26 23 3 27 8 27 33
0 23 -5 31 -20 33 -12 2 -24 0 -28 -4z m41 -32 c3 -17 -2 -22 -17 -22 -16 0
-21 6 -21 26 0 33 33 30 38 -4z"/>
<path d="M4254 2595 c1 -19 4 -35 9 -35 10 0 9 58 -1 64 -5 3 -8 -11 -8 -29z"/>
<path d="M1970 2601 c-14 -27 -13 -41 4 -41 9 0 12 8 8 26 -6 34 19 28 29 -7
l7 -24 1 26 c1 16 -5 29 -15 33 -22 8 -22 8 -34 -13z"/>
<path d="M2136 2593 c10 -40 14 -41 14 -5 0 18 -5 32 -10 32 -6 0 -8 -11 -4
-27z"/>
<path d="M2321 2588 c-1 -23 4 -38 11 -38 19 0 47 31 41 46 -4 10 0 12 11 8
21 -8 20 -24 -1 -40 -16 -12 -16 -12 5 -7 28 7 31 48 3 56 -23 6 -31 0 -31
-24 0 -32 -19 -30 -29 3 l-9 33 -1 -37z"/>
<path d="M2465 2595 c3 -35 15 -44 15 -12 0 14 -4 28 -9 31 -5 4 -8 -5 -6 -19z"/>
<path d="M2538 2589 c3 -18 0 -29 -7 -29 -7 0 -11 6 -10 13 3 25 -1 38 -11 32
-13 -8 -13 -42 0 -50 6 -3 19 -3 30 0 23 7 28 50 7 58 -10 4 -12 -3 -9 -24z"/>
<path d="M2684 2585 c0 -21 3 -30 8 -22 10 16 10 44 0 51 -4 2 -8 -11 -8 -29z"/>
<path d="M2720 2590 c0 -28 3 -30 30 -28 30 2 38 12 20 23 -5 3 -10 1 -10 -4
0 -6 -7 -11 -15 -11 -8 0 -15 9 -15 20 0 14 5 18 18 14 14 -5 15 -4 2 5 -24
17 -30 13 -30 -19z"/>
<path d="M2827 2613 c-4 -3 -7 -18 -6 -32 l1 -26 8 25 8 25 2 -25 c1 -23 2
-23 9 -5 13 31 -3 58 -22 38z"/>
<path d="M2860 2609 c0 -5 6 -9 14 -9 8 0 17 -10 19 -22 4 -21 4 -20 6 3 1 19
-5 28 -19 32 -11 3 -20 1 -20 -4z"/>
<path d="M2914 2591 c1 -16 4 -27 9 -24 10 6 9 53 -2 53 -4 0 -8 -13 -7 -29z"/>
<path d="M2954 2612 c-6 -4 -7 -17 -3 -32 7 -24 7 -24 8 5 1 23 3 27 11 15 8
-13 10 -12 10 3 0 18 -8 21 -26 9z"/>
<path d="M3034 2612 c-16 -10 -28 -52 -15 -52 6 0 11 9 11 19 0 26 18 37 27
16 3 -10 0 -21 -8 -26 -11 -7 -10 -9 4 -9 14 0 18 6 15 27 -3 28 -16 37 -34
25z"/>
<path d="M3186 2613 c-3 -4 -21 -7 -39 -7 -24 -1 -32 -6 -35 -21 -3 -20 -3
-20 12 -1 9 11 19 17 22 13 4 -4 1 -13 -6 -22 -9 -11 -9 -15 -1 -15 6 0 16 10
21 23 l9 22 0 -22 c1 -17 7 -23 25 -23 39 0 56 11 55 34 0 21 0 21 -9 -1 -6
-16 -18 -23 -36 -23 -20 0 -25 4 -20 16 3 9 6 19 7 22 0 4 4 -1 8 -11 7 -18 8
-18 21 -1 9 11 10 15 3 10 -7 -4 -13 -2 -13 3 0 12 -13 14 -24 4z"/>
<path d="M3272 2611 c-19 -11 -11 -45 11 -49 13 -3 17 3 17 27 0 32 -6 37 -28
22z m14 -38 c-11 -11 -19 6 -11 24 8 17 8 17 12 0 3 -10 2 -21 -1 -24z"/>
<path d="M3320 2591 c0 -27 3 -29 34 -28 25 1 36 6 39 19 6 21 -6 31 -45 35
-25 2 -28 0 -28 -26z m59 -10 c0 -11 -2 -12 -6 -3 -4 10 -8 10 -19 1 -11 -9
-14 -7 -14 9 0 15 5 19 20 15 11 -3 20 -13 19 -22z"/>
<path d="M3414 2590 c1 -39 16 -39 16 0 0 17 -4 30 -9 30 -4 0 -8 -13 -7 -30z"/>
<path d="M3452 2608 c-19 -19 -14 -37 14 -44 31 -8 58 14 48 39 -7 20 -44 23
-62 5z m56 -15 c4 -16 -22 -27 -43 -19 -22 8 -6 38 18 34 11 -2 22 -9 25 -15z"/>
<path d="M3555 2608 c-10 -26 1 -47 24 -45 26 2 26 8 2 38 -18 22 -20 22 -26
7z m25 -29 c0 -5 -4 -9 -10 -9 -5 0 -10 7 -10 16 0 8 5 12 10 9 6 -3 10 -10
10 -16z"/>
<path d="M3601 2590 c15 -45 24 -54 15 -15 -4 17 -12 34 -17 40 -5 5 -4 -6 2
-25z"/>
<path d="M3670 2591 c0 -18 -4 -30 -9 -27 -5 3 -8 14 -6 24 1 9 0 11 -2 3 -4
-12 -6 -12 -14 0 -5 9 -7 5 -5 -14 1 -15 6 -30 11 -35 4 -4 5 -1 1 6 -6 10 -1
11 17 7 23 -6 25 -4 22 24 -3 43 -15 52 -15 12z"/>
<path d="M3700 2595 c0 -13 8 -29 18 -34 16 -8 17 -6 14 25 -5 40 -32 48 -32
9z m17 -17 c-3 -7 -5 -2 -5 12 0 14 2 19 5 13 2 -7 2 -19 0 -25z"/>
<path d="M3749 2612 c8 -6 12 -19 8 -32 -4 -16 -3 -20 4 -13 15 15 7 45 -11
50 -12 4 -13 3 -1 -5z"/>
<path d="M3885 2610 c-10 -16 4 -50 21 -50 8 0 14 8 14 19 0 23 -25 47 -35 31z
m25 -30 c0 -5 -2 -10 -4 -10 -3 0 -8 5 -11 10 -3 6 -1 10 4 10 6 0 11 -4 11
-10z"/>
<path d="M3940 2605 c0 -8 4 -15 10 -15 5 0 7 7 4 15 -4 8 -8 15 -10 15 -2 0
-4 -7 -4 -15z"/>
<path d="M3982 2595 c0 -16 2 -22 5 -12 2 9 2 23 0 30 -3 6 -5 -1 -5 -18z"/>
<path d="M4017 2613 c-4 -3 -7 -17 -7 -30 0 -20 5 -23 33 -22 30 2 30 2 5 6
-20 3 -28 10 -28 24 0 35 53 21 63 -16 4 -16 5 -15 6 6 1 27 -14 39 -48 39
-10 0 -21 -3 -24 -7z"/>
<path d="M4107 2606 c-4 -10 -1 -13 8 -9 8 3 12 9 9 14 -7 12 -11 11 -17 -5z"/>
<path d="M4152 2590 c0 -19 2 -27 5 -17 2 9 2 25 0 35 -3 9 -5 1 -5 -18z"/>
<path d="M4196 2598 c-21 -29 -20 -38 3 -38 24 0 45 25 37 45 -8 21 -22 19
-40 -7z m32 -5 c-2 -10 -11 -19 -21 -21 -16 -3 -17 -1 -5 17 16 25 31 27 26 4z"/>
<path d="M4290 2591 c0 -23 5 -31 18 -31 14 0 14 2 3 9 -8 5 -11 16 -8 25 3 8
2 18 -3 21 -6 4 -10 -7 -10 -24z"/>
<path d="M4337 2614 c-7 -8 5 -54 15 -54 5 0 6 5 3 10 -4 6 -2 17 4 24 9 10 8
15 -3 19 -8 3 -16 4 -19 1z"/>
<path d="M4381 2593 c-1 -31 1 -33 34 -33 32 0 35 2 34 28 -2 23 -2 24 -6 5
-7 -35 -50 -31 -56 5 -4 25 -4 25 -6 -5z"/>
<path d="M4504 2587 c-1 -30 -1 -30 9 -9 6 14 7 26 1 32 -5 5 -9 -4 -10 -23z"/>
<path d="M1753 2603 c-19 -7 -16 -43 3 -50 23 -9 49 10 50 36 1 21 -22 27 -53
14z m35 -20 c-5 -25 -28 -28 -28 -4 0 12 6 21 16 21 9 0 14 -7 12 -17z"/>
<path d="M1820 2583 c0 -21 3 -24 12 -15 14 14 38 16 38 3 0 -5 -8 -12 -17
-14 -16 -4 -16 -5 -1 -6 9 0 20 4 23 9 4 6 13 7 24 1 9 -5 23 -6 30 -2 17 11
11 43 -9 48 -13 4 -13 3 0 -7 11 -9 12 -13 2 -17 -6 -2 -9 -10 -5 -16 3 -7 2
-8 -3 -4 -5 5 -7 10 -4 11 16 9 -27 36 -56 36 -30 0 -34 -3 -34 -27z m64 9 c3
-5 -8 -6 -25 -4 -16 2 -29 6 -29 8 0 8 49 4 54 -4z"/>
<path d="M2041 2583 c2 -24 2 -25 6 -5 2 12 9 22 14 22 5 0 9 -10 10 -22 0
-22 1 -22 8 -3 11 25 5 35 -20 35 -14 0 -19 -6 -18 -27z"/>
<path d="M2100 2586 c0 -35 15 -40 16 -5 1 16 -3 29 -7 29 -5 0 -9 -11 -9 -24z"/>
<path d="M2183 2603 c-18 -7 -16 -40 3 -47 9 -3 23 -2 32 4 14 8 13 9 -8 7
-32 -3 -34 27 -2 31 16 2 25 -3 31 -20 l10 -23 0 25 c1 21 -4 26 -26 27 -16 1
-34 -1 -40 -4z"/>
<path d="M2268 2585 c-3 -14 -1 -25 3 -25 5 0 9 11 9 25 0 14 -2 25 -4 25 -2
0 -6 -11 -8 -25z"/>
<path d="M2302 2585 c0 -16 2 -22 5 -12 2 9 2 23 0 30 -3 6 -5 -1 -5 -18z"/>
<path d="M2594 2584 c-1 -13 2 -24 7 -24 5 0 9 9 9 20 0 22 15 27 26 9 3 -6 0
-15 -7 -20 -11 -7 -10 -9 4 -9 11 0 17 8 17 23 0 18 2 19 10 7 8 -13 10 -13
10 1 0 12 -10 17 -37 17 -33 1 -38 -2 -39 -24z"/>
<path d="M2786 2585 c9 -14 17 -25 19 -25 1 0 0 11 -3 25 -2 14 -11 25 -18 25
-12 0 -11 -5 2 -25z"/>
<path d="M3090 2585 c0 -14 2 -25 4 -25 2 0 6 11 8 25 3 14 1 25 -3 25 -5 0
-9 -11 -9 -25z"/>
<path d="M4402 2598 c2 -6 11 -13 19 -16 12 -3 12 -2 0 6 -11 8 -11 10 0 15
10 4 8 6 -4 6 -10 1 -17 -4 -15 -11z"/>
<path d="M4460 2593 c0 -15 2 -16 10 -3 8 13 10 13 10 -2 0 -9 -6 -19 -12 -21
-8 -3 -6 -6 5 -6 12 -1 17 7 17 24 0 16 -6 25 -15 25 -8 0 -15 -8 -15 -17z"/>
<path d="M2572 2580 c0 -14 2 -19 5 -12 2 6 2 18 0 25 -3 6 -5 1 -5 -13z"/>
<path d="M2425 2577 c-8 -19 -2 -31 13 -26 5 2 6 13 2 24 -7 19 -8 19 -15 2z"/>
<path d="M2860 2576 c0 -9 5 -16 10 -16 6 0 10 4 10 9 0 6 -4 13 -10 16 -5 3
-10 -1 -10 -9z"/>
<path d="M7042 2580 c-92 -14 -147 -73 -159 -170 -9 -73 17 -132 79 -181 27
-21 61 -42 74 -45 14 -4 255 -4 537 -2 500 4 513 5 553 26 56 29 132 115 140
159 8 44 -9 103 -38 130 -36 33 -119 72 -177 83 -62 12 -928 12 -1009 0z m35
-207 c-2 -16 -4 -5 -4 22 0 28 2 40 4 28 2 -13 2 -35 0 -50z m280 -5 c-2 -13
-4 -5 -4 17 -1 22 1 32 4 23 2 -10 2 -28 0 -40z m130 0 c-2 -13 -4 -5 -4 17
-1 22 1 32 4 23 2 -10 2 -28 0 -40z m30 0 c-2 -13 -4 -5 -4 17 -1 22 1 32 4
23 2 -10 2 -28 0 -40z m33 16 c0 -19 -4 -33 -8 -30 -8 5 -4 66 4 66 2 0 4 -16
4 -36z m17 -16 c-2 -13 -4 -5 -4 17 -1 22 1 32 4 23 2 -10 2 -28 0 -40z m50
30 c-3 -8 -6 -5 -6 6 -1 11 2 17 5 13 3 -3 4 -12 1 -19z m83 -5 c0 -17 -6 -23
-21 -23 -11 0 -17 5 -14 10 4 6 11 7 17 4 6 -4 9 -1 6 7 -4 12 -36 14 -47 3
-12 -12 13 -34 39 -34 27 0 30 3 30 32 0 23 3 29 11 21 6 -6 9 -21 7 -34 -3
-21 -9 -24 -50 -27 l-48 -3 0 36 c0 35 1 36 35 33 29 -2 35 -6 35 -25z m-554
-37 c22 -9 30 25 9 40 -16 12 -16 13 4 11 11 -1 21 -8 21 -17 0 -13 1 -13 10
0 9 13 10 13 10 0 -1 -24 -25 -50 -48 -50 -26 0 -41 26 -33 54 5 19 6 18 9 -6
2 -14 10 -29 18 -32z m124 45 c0 -5 -9 -7 -20 -4 -15 4 -20 0 -20 -13 0 -11 4
-25 9 -32 12 -20 49 5 54 38 4 25 4 25 6 -2 1 -19 -6 -32 -23 -43 -32 -21 -53
-10 -58 31 -4 32 -2 34 24 34 15 0 28 -4 28 -9z m62 -21 c-2 -16 -10 -34 -16
-39 -10 -8 -11 -3 -8 22 4 25 15 44 28 47 0 0 -1 -13 -4 -30z m118 0 c0 -16
-4 -30 -10 -30 -5 0 -10 14 -10 30 0 17 5 30 10 30 6 0 10 -13 10 -30z m-177
-7 c-7 -2 -19 -2 -25 0 -7 3 -2 5 12 5 14 0 19 -2 13 -5z"/>
<path d="M3930 2569 c0 -5 9 -9 20 -9 11 0 20 2 20 4 0 2 -9 6 -20 9 -11 3
-20 1 -20 -4z"/>
<path d="M4100 2570 c0 -6 7 -10 15 -10 8 0 15 2 15 4 0 2 -7 6 -15 10 -8 3
-15 1 -15 -4z"/>
<path d="M4384 2436 c-3 -8 -4 -25 -2 -38 3 -17 5 -13 9 15 5 38 2 47 -7 23z"/>
<path d="M1668 2415 c5 -30 18 -32 32 -6 14 28 13 31 -14 31 -19 0 -22 -4 -18
-25z"/>
<path d="M1727 2433 c-4 -3 -7 -15 -7 -25 0 -13 7 -18 28 -17 24 2 24 2 4 6
-26 5 -25 26 2 31 11 2 19 -4 23 -17 6 -23 23 -29 23 -8 0 29 -53 51 -73 30z"/>
<path d="M1810 2413 l1 -28 14 25 c14 24 14 24 15 3 0 -20 5 -22 44 -20 24 1
42 5 39 9 -2 5 -8 6 -13 3 -4 -3 -10 1 -13 7 -4 10 -7 11 -18 1 -20 -19 -32
-16 -26 7 4 16 0 20 -19 20 -20 0 -24 -5 -24 -27z"/>
<path d="M1910 2431 c0 -4 12 -6 27 -3 23 4 25 3 20 -19 -6 -23 -5 -23 8 -5
22 29 18 36 -20 36 -19 0 -35 -4 -35 -9z"/>
<path d="M1997 2433 c-11 -10 -8 -43 3 -43 6 0 10 9 10 20 0 12 7 20 16 20 12
0 15 -6 11 -21 -3 -11 -1 -19 5 -17 5 2 9 7 9 11 -1 4 -1 14 -1 22 0 15 -40
21 -53 8z"/>
<path d="M2070 2415 c0 -14 4 -25 9 -25 4 0 6 11 3 25 -2 14 -6 25 -8 25 -2 0
-4 -11 -4 -25z"/>
<path d="M2090 2436 c0 -2 9 -6 20 -9 11 -3 20 -1 20 4 0 5 -9 9 -20 9 -11 0
-20 -2 -20 -4z"/>
<path d="M2162 2428 c-24 -24 -11 -46 23 -38 6 1 15 3 20 4 6 1 15 5 22 9 6 4
14 1 16 -5 3 -7 6 -3 6 9 1 12 9 24 19 26 16 4 16 5 0 6 -10 0 -27 -8 -38 -19
l-20 -20 0 20 c0 23 -29 27 -48 8z m38 -7 c0 -14 -18 -23 -30 -16 -6 4 -8 11
-5 16 8 12 35 12 35 0z"/>
<path d="M2297 2434 c-4 -4 -7 -17 -7 -28 1 -19 1 -20 11 -3 11 19 8 43 -4 31z"/>
<path d="M2347 2433 c-4 -3 -7 -16 -7 -27 0 -17 2 -18 9 -6 6 8 7 18 5 22 -3
4 2 8 12 8 12 0 15 -6 11 -21 -3 -13 -1 -19 6 -16 7 2 13 13 15 25 3 17 -2 22
-21 22 -13 0 -27 -3 -30 -7z"/>
<path d="M2417 2433 c-4 -3 -7 -15 -7 -25 0 -13 8 -18 30 -18 25 0 30 4 30 25
0 20 -5 25 -23 25 -13 0 -27 -3 -30 -7z m41 -15 c-3 -7 -13 -15 -24 -17 -16
-3 -17 -1 -5 13 16 19 34 21 29 4z"/>
<path d="M2510 2429 c12 -9 11 -10 -7 -6 -18 4 -23 1 -23 -14 0 -14 7 -19 25
-19 20 0 25 5 25 25 0 17 -5 25 -17 25 -16 0 -16 -2 -3 -11z m7 -25 c-3 -3
-12 -4 -19 -1 -8 3 -5 6 6 6 11 1 17 -2 13 -5z"/>
<path d="M2548 2410 c5 -35 22 -30 22 6 0 13 -6 24 -13 24 -9 0 -12 -10 -9
-30z"/>
<path d="M2601 2413 c1 -17 3 -21 6 -10 2 9 9 17 15 17 5 0 8 -6 5 -14 -3 -8
2 -16 12 -19 23 -6 23 29 1 43 -27 17 -40 11 -39 -17z"/>
<path d="M2660 2430 c0 -5 5 -10 11 -10 6 0 9 -7 5 -15 -3 -8 -1 -15 4 -15 6
0 10 11 10 25 0 16 -6 25 -15 25 -8 0 -15 -4 -15 -10z"/>
<path d="M2723 2433 c9 -2 17 -13 17 -24 0 -10 5 -19 10 -19 6 0 10 11 10 25
0 21 -5 25 -27 24 -17 -1 -21 -3 -10 -6z"/>
<path d="M2786 2424 c-10 -27 -7 -30 39 -33 39 -2 45 1 45 19 0 11 7 20 15 20
8 0 15 -7 15 -15 0 -8 -5 -15 -12 -15 -6 0 -8 -3 -4 -7 8 -8 36 23 36 39 0 4
-13 8 -30 8 -24 0 -30 -4 -31 -22 0 -16 -2 -18 -6 -8 -12 32 -57 41 -67 14z
m48 -9 c4 -10 -1 -15 -14 -15 -11 0 -20 7 -20 15 0 8 6 15 14 15 8 0 16 -7 20
-15z"/>
<path d="M2944 2425 c-3 -8 -4 -20 -2 -27 3 -7 7 -1 10 15 6 29 1 36 -8 12z"/>
<path d="M3004 2425 c-4 -8 -4 -21 -1 -29 8 -21 47 -8 47 15 0 13 -5 17 -17
12 -11 -4 -14 -3 -9 5 4 7 2 12 -4 12 -6 0 -13 -7 -16 -15z m36 -20 c0 -2 -7
-5 -15 -9 -9 -3 -15 0 -15 9 0 9 6 12 15 9 8 -4 15 -7 15 -9z"/>
<path d="M3068 2415 c2 -14 7 -25 11 -25 4 0 8 11 9 25 1 15 -3 25 -12 25 -9
0 -12 -8 -8 -25z"/>
<path d="M3108 2415 c-6 -28 6 -34 16 -9 8 22 7 34 -3 34 -5 0 -11 -11 -13
-25z"/>
<path d="M3140 2415 c0 -16 6 -25 15 -25 8 0 15 4 15 9 0 5 3 16 6 25 4 12 0
16 -15 16 -16 0 -21 -6 -21 -25z m17 -7 c-3 -8 -6 -5 -6 6 -1 11 2 17 5 13 3
-3 4 -12 1 -19z"/>
<path d="M3202 2428 c-6 -6 -12 -19 -12 -27 0 -11 5 -9 16 7 8 12 19 22 25 22
14 0 6 -24 -11 -32 -11 -5 -8 -7 8 -7 19 -1 23 4 20 21 -3 26 -28 34 -46 16z"/>
<path d="M3269 2433 c0 -5 -2 -16 -4 -25 -2 -10 1 -18 6 -18 5 0 9 9 9 20 0
27 18 25 23 -2 l4 -23 2 23 c0 12 5 22 10 22 5 0 12 -10 14 -22 4 -20 4 -19 6
5 1 25 -2 27 -34 27 -19 0 -35 -3 -36 -7z"/>
<path d="M3367 2433 c-11 -10 -8 -43 4 -43 5 0 7 5 4 10 -4 6 -1 17 5 25 12
15 0 22 -13 8z"/>
<path d="M3420 2421 c0 -10 -6 -22 -12 -24 -8 -4 -7 -6 3 -6 18 -1 33 36 18
45 -5 3 -9 -4 -9 -15z"/>
<path d="M3456 2431 c-4 -5 -3 -17 0 -26 8 -19 66 -17 70 3 1 7 0 8 -3 2 -8
-17 -53 -12 -53 6 0 11 6 15 20 11 11 -3 20 -1 20 4 0 12 -47 12 -54 0z"/>
<path d="M3540 2429 c0 -6 7 -8 15 -5 10 4 19 -2 25 -17 8 -21 9 -21 9 6 1 22
-3 27 -24 27 -14 0 -25 -5 -25 -11z"/>
<path d="M3600 2413 c0 -18 6 -23 25 -23 17 0 25 5 25 18 0 14 -2 15 -10 2 -5
-8 -12 -11 -16 -7 -4 3 -2 12 4 20 8 10 6 13 -9 13 -13 0 -19 -7 -19 -23z"/>
<path d="M3678 2415 c2 -14 6 -25 8 -25 2 0 4 11 4 25 0 14 -4 25 -9 25 -4 0
-6 -11 -3 -25z"/>
<path d="M3727 2433 c-10 -9 -9 -41 1 -47 5 -3 8 4 8 16 -1 12 5 23 13 26 8 2
11 0 8 -5 -3 -5 -2 -15 2 -22 6 -9 10 -5 13 13 4 22 2 26 -17 26 -12 0 -25 -3
-28 -7z"/>
<path d="M3821 2413 c2 -24 2 -25 6 -5 2 12 11 22 19 22 10 0 13 -7 8 -25 -3
-14 -2 -25 3 -25 5 0 10 14 11 30 2 26 -1 30 -23 30 -21 0 -25 -4 -24 -27z"/>
<path d="M3886 2424 c-8 -21 1 -34 22 -33 15 1 15 2 0 6 -21 5 -23 19 -6 29 6
4 14 2 16 -4 2 -7 8 -12 14 -12 6 0 6 6 -2 15 -16 20 -36 19 -44 -1z"/>
<path d="M3954 2415 c-8 -32 1 -43 23 -29 20 13 29 34 14 34 -6 0 -10 -5 -8
-11 1 -6 -4 -14 -11 -16 -9 -4 -11 2 -6 21 3 14 4 26 0 26 -3 0 -8 -11 -12
-25z"/>
<path d="M3996 2432 c7 -4 14 -16 17 -27 4 -15 5 -14 6 8 1 20 -4 27 -16 27
-12 0 -14 -3 -7 -8z"/>
<path d="M4080 2415 c0 -14 3 -25 8 -25 4 0 7 11 7 25 0 14 -3 25 -7 25 -5 0
-8 -11 -8 -25z"/>
<path d="M4141 2418 c-1 -16 4 -28 9 -28 12 0 12 8 0 35 -8 18 -9 17 -9 -7z"/>
<path d="M4196 2424 c-3 -9 -6 -21 -5 -27 0 -7 4 -2 9 11 9 22 40 31 40 11 0
-5 5 -7 10 -4 16 10 1 25 -25 25 -12 0 -26 -7 -29 -16z"/>
<path d="M4291 2424 c0 -11 3 -14 6 -6 3 7 2 16 -1 19 -3 4 -6 -2 -5 -13z"/>
<path d="M4342 2408 c-1 -23 2 -28 8 -18 12 19 13 50 2 50 -5 0 -9 -14 -10
-32z"/>
<path d="M4410 2410 c0 -16 4 -30 8 -30 5 0 7 14 4 30 -2 17 -6 30 -8 30 -2 0
-4 -13 -4 -30z"/>
<path d="M4482 2415 c0 -16 2 -22 5 -12 2 9 2 23 0 30 -3 6 -5 -1 -5 -18z"/>
<path d="M4513 2433 c-20 -8 -16 -55 4 -51 9 2 18 10 20 18 4 13 3 13 -6 0
-15 -21 -27 -2 -13 20 7 11 11 20 10 19 -2 0 -9 -3 -15 -6z"/>
<path d="M2317 2410 c-3 -11 -1 -20 4 -20 5 0 9 9 9 20 0 11 -2 20 -4 20 -2 0
-6 -9 -9 -20z"/>
<path d="M2973 2414 c-3 -8 -1 -20 5 -26 7 -7 10 -2 9 16 -2 30 -5 32 -14 10z"/>
<path d="M3792 2410 c0 -14 2 -19 5 -12 2 6 2 18 0 25 -3 6 -5 1 -5 -13z"/>
<path d="M4046 2414 c-9 -23 -7 -36 3 -30 12 8 21 46 11 46 -4 0 -11 -7 -14
-16z"/>
<path d="M4272 2410 c0 -14 2 -19 5 -12 2 6 2 18 0 25 -3 6 -5 1 -5 -13z"/>
<path d="M4310 2418 c0 -9 -6 -19 -12 -21 -10 -4 -10 -6 0 -6 14 -1 28 26 18
36 -3 4 -6 -1 -6 -9z"/>
<path d="M4457 2423 c-3 -5 -1 -17 4 -28 7 -17 8 -17 8 8 1 27 -4 34 -12 20z"/>
<path d="M2267 2413 c-4 -3 -7 -11 -7 -17 0 -6 5 -5 12 2 6 6 9 14 7 17 -3 3
-9 2 -12 -2z"/>
<path d="M2700 2406 c0 -8 5 -18 10 -21 6 -3 10 3 10 14 0 12 -4 21 -10 21 -5
0 -10 -6 -10 -14z"/>
<path d="M4106 2405 c4 -8 8 -15 10 -15 2 0 4 7 4 15 0 8 -4 15 -10 15 -5 0
-7 -7 -4 -15z"/>
<path d="M3540 2401 c0 -5 7 -12 16 -15 14 -5 15 -4 4 9 -14 17 -20 19 -20 6z"/>
<path d="M8632 2401 c-14 -9 -2 -22 31 -34 13 -5 17 -1 17 18 0 26 -22 33 -48
16z m28 -11 c0 -5 -2 -10 -4 -10 -3 0 -8 5 -11 10 -3 6 -1 10 4 10 6 0 11 -4
11 -10z"/>
<path d="M8700 2390 c0 -11 4 -20 9 -20 11 0 22 26 14 34 -12 12 -23 5 -23
-14z"/>
<path d="M1819 2248 c-3 -22 -1 -34 4 -29 5 5 7 21 5 37 -3 27 -4 26 -9 -8z"/>
<path d="M2362 2250 c0 -19 2 -27 5 -17 2 9 2 25 0 35 -3 9 -5 1 -5 -18z"/>
<path d="M2932 2270 c0 -22 16 -68 17 -49 2 34 61 40 62 7 0 -23 0 -23 10 1
12 31 -2 41 -47 31 -26 -6 -34 -4 -37 9 -4 12 -5 12 -5 1z"/>
<path d="M3133 2269 c-20 -7 -41 -45 -30 -55 2 -3 7 7 11 21 8 33 26 32 27 -2
1 -25 2 -25 9 7 5 19 8 35 7 36 -1 1 -12 -2 -24 -7z"/>
<path d="M8885 2257 c-11 -12 -33 -33 -50 -45 l-30 -23 30 15 c31 15 82 63 74
70 -2 3 -13 -5 -24 -17z"/>
<path d="M1740 2258 c0 -4 7 -8 15 -8 9 0 12 -6 9 -17 -3 -10 1 -7 9 7 l15 24
5 -24 4 -25 2 26 c1 22 -3 26 -29 26 -16 0 -30 -4 -30 -9z"/>
<path d="M1966 2256 c3 -9 11 -16 16 -16 13 0 5 23 -10 28 -7 2 -10 -2 -6 -12z"/>
<path d="M2010 2245 c0 -21 4 -25 28 -24 23 2 24 2 5 6 -13 2 -23 11 -23 19 0
17 26 19 33 2 3 -8 6 -6 6 5 1 12 -7 17 -24 17 -20 0 -25 -5 -25 -25z"/>
<path d="M2107 2264 c-10 -10 -9 -44 2 -44 5 0 7 9 4 21 -5 17 -2 20 13 17 11
-2 18 -11 16 -21 -2 -9 2 -17 8 -17 6 0 10 10 8 23 -3 22 -36 36 -51 21z"/>
<path d="M2186 2248 c-3 -13 -2 -26 2 -30 4 -4 8 2 9 13 3 33 13 36 34 10 18
-22 19 -22 19 -3 0 36 -54 44 -64 10z"/>
<path d="M2267 2263 c-13 -12 -7 -43 8 -43 8 0 15 7 15 15 0 21 38 19 43 -2 4
-14 5 -12 6 5 1 17 -4 22 -22 22 -13 0 -29 -6 -36 -12 -10 -11 -11 -10 -6 5 7
17 3 22 -8 10z"/>
<path d="M2400 2240 c0 -27 3 -30 33 -29 l32 2 -30 5 -30 5 25 7 c24 8 24 8 3
9 -13 1 -23 6 -23 12 0 6 9 9 20 6 11 -3 20 -1 20 4 0 5 -11 9 -25 9 -21 0
-25 -5 -25 -30z"/>
<path d="M2508 2240 c2 -16 6 -30 8 -30 2 0 4 14 4 30 0 17 -4 30 -8 30 -5 0
-7 -13 -4 -30z"/>
<path d="M2544 2256 c-3 -8 -4 -23 -1 -33 4 -15 5 -14 6 4 2 32 20 38 30 11 9
-22 10 -22 10 -2 1 12 -6 25 -15 28 -22 8 -24 8 -30 -8z"/>
<path d="M2604 2258 c-4 -7 -3 -8 4 -4 8 5 12 -1 12 -16 1 -20 2 -21 11 -5 16
28 -10 53 -27 25z"/>
<path d="M2654 2240 c1 -39 12 -39 18 0 3 19 0 30 -7 30 -7 0 -12 -13 -11 -30z"/>
<path d="M2724 2256 c-8 -22 -1 -49 14 -52 7 -1 8 0 2 3 -11 5 -14 53 -2 53
12 0 29 -14 35 -30 4 -9 6 -4 4 10 -2 29 -43 42 -53 16z"/>
<path d="M2807 2264 c-4 -4 -7 -18 -7 -31 0 -20 5 -24 23 -21 16 2 22 10 22
28 0 24 -23 39 -38 24z m33 -24 c0 -11 -7 -20 -15 -20 -8 0 -15 9 -15 20 0 11
7 20 15 20 8 0 15 -9 15 -20z"/>
<path d="M2870 2239 c0 -35 15 -31 22 6 4 17 1 25 -8 25 -9 0 -14 -11 -14 -31z"/>
<path d="M3053 2263 c-7 -3 -13 -12 -13 -21 0 -13 3 -12 14 4 14 18 15 18 22
0 4 -11 2 -22 -7 -28 -12 -8 -11 -9 1 -5 8 2 16 13 18 24 3 21 -14 33 -35 26z"/>
<path d="M3200 2257 c0 -8 7 -17 15 -21 8 -3 15 -1 15 3 0 5 -6 12 -12 14 -8
3 -7 6 4 6 10 1 18 -9 21 -24 4 -23 4 -23 3 2 -1 21 -7 29 -23 31 -15 2 -23
-2 -23 -11z"/>
<path d="M3262 2240 c0 -19 2 -27 5 -17 2 9 2 25 0 35 -3 9 -5 1 -5 -18z"/>
<path d="M3289 2256 c8 -9 20 -15 26 -12 7 2 18 -1 25 -7 10 -9 11 -9 8 3 -3
8 -14 15 -25 16 -11 1 -27 5 -34 9 -12 7 -12 6 0 -9z"/>
<path d="M3400 2251 c0 -12 5 -21 10 -21 6 0 10 6 10 14 0 8 -4 18 -10 21 -5
3 -10 -3 -10 -14z"/>
<path d="M3585 2250 c-4 -12 -2 -27 3 -32 8 -8 9 -4 5 10 -8 30 25 42 44 16
14 -19 15 -19 11 1 -5 30 -54 33 -63 5z"/>
<path d="M1669 2233 c5 -26 6 -26 9 -5 4 24 17 29 25 10 3 -8 6 -6 6 5 1 11
-6 17 -23 17 -20 0 -22 -4 -17 -27z"/>
<path d="M1722 2240 c0 -14 2 -19 5 -12 2 6 2 18 0 25 -3 6 -5 1 -5 -13z"/>
<path d="M1841 2238 c0 -16 2 -18 6 -8 3 8 11 18 17 22 7 5 4 8 -6 8 -12 0
-18 -7 -17 -22z"/>
<path d="M1887 2254 c7 -3 9 -13 6 -22 -4 -15 -3 -15 6 -2 15 22 14 30 -6 29
-10 0 -13 -3 -6 -5z"/>
<path d="M1930 2241 c0 -11 3 -22 8 -24 4 -3 7 6 7 19 0 13 -3 24 -7 24 -5 0
-8 -9 -8 -19z"/>
<path d="M2073 2240 c1 -11 5 -20 9 -20 4 0 8 9 8 20 0 11 -4 20 -9 20 -6 0
-9 -9 -8 -20z"/>
<path d="M2464 2249 c-3 -6 -1 -16 5 -22 8 -8 11 -5 11 11 0 24 -5 28 -16 11z"/>
<path d="M3445 2250 c-8 -12 12 -40 28 -40 6 0 3 6 -8 13 -14 11 -15 16 -5 22
7 4 15 4 19 -1 10 -14 29 -14 34 -1 6 16 -58 22 -68 7z"/>
<path d="M3552 2240 c0 -14 2 -19 5 -12 2 6 2 18 0 25 -3 6 -5 1 -5 -13z"/>
<path d="M3600 2240 c0 -6 7 -10 15 -10 8 0 15 2 15 4 0 2 -7 6 -15 10 -8 3
-15 1 -15 -4z"/>
<path d="M3281 2224 c0 -11 3 -14 6 -6 3 7 2 16 -1 19 -3 4 -6 -2 -5 -13z"/>
<path d="M1788 1970 c-81 -14 -171 -86 -183 -148 -4 -15 -8 -36 -10 -46 -7
-36 16 -115 46 -156 48 -66 84 -77 304 -88 285 -15 1029 0 1121 22 131 31 211
106 225 209 3 29 2 54 -2 55 -5 2 -7 8 -3 13 10 17 -118 135 -155 142 -47 10
-1286 6 -1343 -3z m48 -258 c-14 -13 -18 11 -10 55 l9 48 3 -49 c2 -26 1 -51
-2 -54z m415 8 c12 0 19 10 22 33 4 27 4 26 3 -7 -1 -29 -5 -40 -19 -42 -27
-4 -47 24 -46 64 l1 37 11 -42 c7 -31 15 -43 28 -43z m91 30 c2 -22 0 -40 -4
-40 -5 0 -8 18 -8 40 0 22 2 40 4 40 2 0 6 -18 8 -40z m108 0 c0 -52 -14 -52
-18 0 -1 22 2 40 8 40 5 0 10 -18 10 -40z m139 14 c12 -15 21 -32 21 -38 0 -6
-5 -4 -10 4 -8 13 -10 13 -10 -2 0 -19 -41 -35 -59 -23 -12 7 -14 44 -5 69 9
24 40 19 63 -10z m-649 -8 c0 -12 -7 -30 -16 -41 -11 -15 -18 -17 -32 -9 -38
25 -27 73 17 72 25 -1 31 -5 31 -22z m98 -13 c-3 -34 -6 -38 -33 -41 -33 -4
-57 20 -48 46 9 23 23 32 56 32 26 0 28 -2 25 -37z m54 -43 c5 0 8 7 4 15 -3
9 0 15 9 15 23 0 17 -30 -7 -39 -31 -12 -36 -4 -29 49 l6 45 3 -42 c2 -24 8
-43 14 -43z m58 51 c0 -35 -9 -61 -21 -61 -5 0 -4 12 1 26 7 17 7 32 0 45 -8
15 -7 19 5 19 10 0 15 -10 15 -29z m270 18 c0 -6 -7 -8 -16 -5 -13 5 -15 1
-12 -24 6 -38 -9 -40 -18 -2 -4 15 -12 30 -18 34 -6 4 6 8 27 8 20 0 37 -5 37
-11z m-303 -25 c-3 -3 -12 -4 -19 -1 -8 3 -5 6 6 6 11 1 17 -2 13 -5z m143 2
c0 -3 -4 -8 -10 -11 -5 -3 -10 -1 -10 4 0 6 5 11 10 11 6 0 10 -2 10 -4z m160
-6 c0 -5 -4 -10 -10 -10 -5 0 -10 5 -10 10 0 6 5 10 10 10 6 0 10 -4 10 -10z"/>
<path d="M2537 1773 c-4 -3 -7 -17 -7 -30 0 -16 6 -23 20 -23 11 0 20 5 20 10
0 6 -7 10 -15 10 -17 0 -20 16 -5 25 6 3 10 1 10 -4 0 -6 4 -11 10 -11 5 0 7
7 4 15 -6 16 -26 20 -37 8z"/>
<path d="M1884 1744 c3 -9 6 -18 6 -20 0 -12 29 -2 34 12 9 23 8 24 -20 24
-20 0 -25 -4 -20 -16z"/>
<path d="M1985 1756 c-23 -16 -14 -46 14 -46 31 0 34 18 4 23 l-28 4 27 2 c20
1 26 5 22 16 -7 19 -15 19 -39 1z"/>
<path d="M5694 1910 c-22 -9 -114 -136 -114 -157 0 -12 12 -17 68 -28 27 -6
32 -11 32 -36 0 -35 16 -38 24 -4 3 13 15 29 26 35 23 12 27 50 5 50 -20 0
-34 58 -23 98 12 43 8 51 -18 42z m-14 -120 c0 -27 -3 -30 -30 -30 -37 0 -38
12 -2 39 34 26 32 26 32 -9z"/>
<path d="M5449 1895 c-28 -15 -43 -41 -33 -56 9 -16 32 -10 49 14 l16 22 20
-24 c27 -33 21 -50 -29 -84 -44 -30 -67 -60 -59 -80 3 -8 28 -11 76 -9 62 3
71 6 71 23 0 15 -7 19 -35 19 -19 0 -35 4 -35 9 0 5 16 21 35 35 28 21 35 34
35 60 0 63 -59 100 -111 71z"/>
<path d="M4596 1879 c-14 -11 -24 -25 -21 -30 10 -15 38 -10 61 12 12 12 27
18 33 14 18 -10 13 -51 -9 -70 -27 -24 -25 -35 4 -35 34 0 40 -16 16 -40 -25
-25 -31 -25 -60 0 -13 11 -27 20 -33 20 -14 0 16 -41 47 -64 25 -19 29 -19 54
-6 14 9 33 28 42 43 13 24 13 29 0 37 -12 7 -13 15 -4 37 13 36 2 64 -36 86
-37 22 -62 21 -94 -4z"/>
<path d="M4782 1888 c-5 -7 -13 -24 -17 -37 l-7 -24 36 21 c21 12 39 22 41 22
5 0 35 -56 35 -65 0 -3 -9 0 -21 7 -17 11 -22 10 -30 -4 -14 -26 -11 -32 14
-33 16 0 22 -6 22 -24 0 -38 -29 -50 -58 -23 -31 29 -50 29 -42 0 9 -31 42
-58 70 -58 13 0 38 12 55 26 31 26 31 28 25 93 -9 88 -25 111 -74 111 -21 0
-43 -6 -49 -12z"/>
<path d="M4959 1871 c-25 -25 -29 -37 -29 -81 0 -45 4 -56 31 -81 37 -35 57
-36 93 -8 36 28 48 63 40 115 -12 84 -78 111 -135 55z m85 -33 c10 -40 6 -95
-8 -107 -11 -9 -21 -6 -45 15 -36 30 -39 51 -10 88 25 32 55 34 63 4z"/>
<path d="M5170 1844 c0 -4 14 -22 30 -41 32 -36 31 -53 -4 -83 -9 -7 -16 -19
-16 -26 0 -23 27 -16 49 12 l20 25 29 -32 c17 -19 34 -29 40 -25 19 11 14 31
-13 56 -14 13 -25 31 -25 40 0 9 11 27 25 40 30 28 32 40 5 40 -12 0 -28 -13
-38 -30 l-19 -30 -28 30 c-26 27 -55 40 -55 24z"/>
<path d="M5776 1738 c-3 -55 -2 -96 4 -102 14 -14 40 12 40 40 0 21 5 24 34
24 39 0 55 15 63 63 7 45 -22 67 -88 67 l-46 0 -7 -92z m95 62 c37 -20 17 -70
-28 -70 -20 0 -23 5 -23 40 0 43 13 50 51 30z"/>
<path d="M8031 1778 c-11 -18 -37 -52 -56 -76 -19 -24 -35 -47 -35 -50 0 -4
23 -7 52 -7 49 0 51 -1 63 -35 9 -24 15 -30 19 -20 3 8 10 28 16 43 9 26 13
27 47 21 50 -9 54 -12 51 -37 -2 -14 3 -23 15 -25 13 -3 17 3 17 23 0 21 4 25
19 20 10 -3 23 1 29 8 9 11 6 19 -13 37 -22 20 -25 21 -25 6 0 -14 -7 -17 -37
-15 -55 4 -57 8 -21 33 19 13 38 19 44 15 6 -5 14 6 21 31 9 36 8 40 -8 40
-22 0 -44 -20 -79 -73 -24 -36 -55 -55 -68 -42 -4 3 -5 35 -4 71 4 75 -12 85
-47 32z m21 -67 c-3 -19 -11 -31 -25 -35 -30 -8 -32 -1 -6 33 28 39 37 39 31
2z"/>
<path d="M7008 1783 c-21 -5 -32 -34 -17 -44 7 -4 27 -5 46 -2 28 5 33 3 33
-15 0 -11 -8 -22 -20 -25 -11 -3 -20 -10 -20 -16 0 -6 9 -11 20 -11 15 0 20
-7 20 -25 0 -40 -28 -45 -72 -13 -9 7 -21 9 -25 4 -12 -11 44 -56 71 -56 27 0
57 30 56 56 0 11 0 45 0 77 0 53 -2 58 -25 67 -27 10 -38 11 -67 3z"/>
<path d="M7841 1781 c-27 -7 -49 -36 -38 -48 5 -4 22 0 39 10 68 39 66 -22 -2
-87 -28 -27 -49 -53 -47 -60 2 -6 33 -13 70 -16 64 -5 67 -4 67 18 0 18 -6 22
-30 22 -16 0 -30 3 -30 6 0 3 14 23 30 44 35 44 38 72 10 100 -21 21 -30 22
-69 11z"/>
<path d="M7154 1759 c-14 -15 -19 -36 -19 -76 0 -49 3 -57 30 -79 38 -30 50
-30 80 1 33 32 36 124 5 155 -26 26 -72 26 -96 -1z m84 -39 c21 -40 0 -110
-34 -110 -41 0 -60 86 -27 122 22 24 44 19 61 -12z"/>
<path d="M7327 1762 c-50 -55 -42 -136 17 -167 45 -25 82 -14 103 29 31 66 -9
156 -71 156 -19 0 -40 -8 -49 -18z m77 -34 c32 -45 14 -118 -29 -118 -29 0
-45 26 -45 71 0 34 24 69 46 69 7 0 20 -10 28 -22z"/>
<path d="M7660 1722 c0 -5 -6 -17 -14 -27 -12 -17 -14 -17 -37 -2 -34 24 -46
21 -21 -6 27 -29 27 -31 0 -67 -27 -37 -19 -47 16 -19 l27 21 28 -26 c37 -36
45 -22 14 25 -24 37 -25 40 -9 64 18 28 21 45 6 45 -5 0 -10 -4 -10 -8z"/>
<path d="M8460 1709 c0 -6 9 -8 23 -3 12 3 19 3 15 -1 -4 -4 -3 -18 2 -31 5
-13 7 -31 4 -39 -7 -18 -31 -20 -36 -3 -5 15 -38 3 -38 -14 0 -8 12 -13 30
-12 44 2 44 2 57 23 9 14 8 24 -2 45 -10 19 -11 26 -2 26 19 0 -16 20 -35 20
-10 0 -18 -5 -18 -11z"/>
<path d="M8693 1678 c-7 -9 -6 -23 3 -43 l13 -30 -2 42 c-1 24 -3 43 -3 43 -1
0 -6 -6 -11 -12z"/>
<path d="M8727 1676 c-3 -7 8 -25 24 -39 16 -14 29 -21 29 -16 0 5 -11 16 -26
25 -26 18 -23 29 11 37 16 4 14 5 -6 6 -15 0 -29 -5 -32 -13z"/>
<path d="M8613 1673 c-15 -5 -18 -63 -4 -63 13 0 22 28 10 36 -6 4 -6 11 2 20
12 15 11 15 -8 7z"/>
<path d="M8639 1663 c-9 -11 -10 -14 -1 -9 8 5 16 -2 24 -21 9 -22 12 -24 15
-11 3 10 -2 27 -10 38 -13 19 -15 19 -28 3z"/>
<path d="M8572 1648 c-14 -14 -16 -38 -3 -38 5 0 11 11 13 25 6 29 6 29 -10
13z"/>
<path d="M10038 783 c7 -3 16 -2 19 1 4 3 -2 6 -13 5 -11 0 -14 -3 -6 -6z"/>
<path d="M8843 293 c9 -2 23 -2 30 0 6 3 -1 5 -18 5 -16 0 -22 -2 -12 -5z"/>
</g>
</svg>
